<?xml version='1.0' encoding='utf-8'?>
<svg xmlns="http://www.w3.org/2000/svg" width="100%" height="100%" viewBox="0 0 1920 1080" data-theme="dark">
  <style>
        @font-face {
            font-family: 'Inter';
            src: url('assets/fonts/Inter-Regular.ttf') format('truetype');
            font-weight: 400;
            font-style: normal;
            font-display: swap;
        }
        @font-face {
            font-family: 'Inter';
            src: url('assets/fonts/Inter-Bold.ttf') format('truetype');
            font-weight: 600;
            font-style: normal;
            font-display: swap;
        }
        @font-face {
            font-family: 'Inter';
            src: url('assets/fonts/Inter-Bold.ttf') format('truetype');
            font-weight: 800;
            font-style: normal;
            font-display: swap;
        }
        
:root {
    --background: #0f172a;
    --panel: #1e293b;
    --primary-text: #f1f5f9;
    --muted-text: #94a3b8;
    --inverse-text: #0f172a;
    --border: #334155;
    --shadow-color: #000000;
    --icon-pad-bg: #1e293b;
    --art-glow: #7dd3fc;
    --art-glow-opacity: 0.18;
    --art-sheen: #ffffff;
    --art-sheen-opacity: 0.18;
    --art-shadow: #000000;
    --art-shadow-opacity: 0.28;
    --art-muted-line: #64748b;
    --art-panel-tint: #1e293b;
    --font-family: 'Inter', 'Segoe UI', 'Kalam', Roboto, Helvetica, Arial, sans-serif;
    --radius-xl: 16px;
    --font-family-headline: 'Inter', 'Segoe UI', 'Kalam', Roboto, Helvetica, Arial, sans-serif;
    --font-family-body: 'Inter', 'Segoe UI', 'Kalam', Roboto, Helvetica, Arial, sans-serif;
    --font-heading: 'Inter', 'Segoe UI', 'Kalam', Roboto, Helvetica, Arial, sans-serif;
    --font-body: 'Inter', 'Segoe UI', 'Kalam', Roboto, Helvetica, Arial, sans-serif;
    --font-size-h1: 56px;
    --font-size-h2: 40px;
    --font-size-h3: 28px;
    --font-size-body: 24px;
    --font-size-caption: 18px;
    --secondary-text: var(--muted-text);
    --panel-border: var(--border);
    --font-weight-normal: 400;
    --font-weight-medium: 500;
    --font-weight-semibold: 600;
    --font-weight-bold: 700;
    --spacing-gutter-pct: 0.07;
    --spacing-top-pct: 0.15;
    --spacing-bottom-pct: 0.07;
    --spacing-title-y-pct: 0.055;
    --accent-1: #22d3ee;
    --accent-2: #38bdf8;
    --accent-3: #60a5fa;
    --accent-4: #818cf8;
    --accent-5: #a78bfa;
    --accent-6: #2dd4bf;
}
:root[data-theme="dark"] {
    --background: #0f172a;
    --panel: #1e293b;
    --primary-text: #f1f5f9;
    --muted-text: #94a3b8;
    --inverse-text: #0f172a;
    --border: #334155;
    --shadow-color: #000000;
    --icon-pad-bg: #1e293b;
    --art-glow: #7dd3fc;
    --art-glow-opacity: 0.18;
    --art-sheen: #ffffff;
    --art-sheen-opacity: 0.18;
    --art-shadow: #000000;
    --art-shadow-opacity: 0.28;
    --art-muted-line: #64748b;
    --art-panel-tint: #1e293b;
    --accent-1: #22d3ee;
    --accent-2: #38bdf8;
    --accent-3: #60a5fa;
    --accent-4: #818cf8;
    --accent-5: #a78bfa;
    --accent-6: #2dd4bf;
}
:root[data-theme="light"] {
    --background: #f8fafc;
    --panel: #ffffff;
    --primary-text: #0f172a;
    --muted-text: #64748b;
    --inverse-text: #ffffff;
    --border: #e2e8f0;
    --shadow-color: #000000;
    --icon-pad-bg: #1e293b;
    --art-glow: #0891b2;
    --art-glow-opacity: 0.10;
    --art-sheen: #ffffff;
    --art-sheen-opacity: 0.34;
    --art-shadow: #0f172a;
    --art-shadow-opacity: 0.14;
    --art-muted-line: #94a3b8;
    --art-panel-tint: #f1f5f9;
    --accent-1: #0891b2;
    --accent-2: #0284c7;
    --accent-3: #2563eb;
    --accent-4: #4f46e5;
    --accent-5: #7c3aed;
    --accent-6: #0d9488;
}</style>
  <rect x="0" y="0" width="1.92E+3" height="1.08E+3" fill="#252a34" stroke="none" id="programmatic_background"/>
  <line id="HEADER_DECOR" x1="960.0" x2="1080.0" y1="105.0" y2="105.0" stroke="var(--accent-1)" stroke-width="6" stroke-linecap="round"/>
  <defs>
    <filter id="svgdfcfcf11-glow" x="-20%" y="-20%" width="140%" height="140%">
      <feGaussianBlur stdDeviation="8" result="blur"/>
      <feComposite in="SourceGraphic" in2="blur" operator="over"/>
    </filter>
    <filter id="svgdfcfcf11-drop-shadow" x="-10%" y="-10%" width="120%" height="120%">
      <feDropShadow dx="0" dy="8" stdDeviation="6" flood-color="#000000" flood-opacity="0.25"/>
    </filter>
    <linearGradient id="svgdfcfcf11-bg-grad" x1="0%" y1="0%" x2="100%" y2="100%">
      <stop offset="0%" stop-color="var(--background)"/>
      <stop offset="100%" stop-color="var(--panel)"/>
    </linearGradient>
    <pattern id="svgdfcfcf11-dot-grid" x="0" y="0" width="40" height="40" patternUnits="userSpaceOnUse">
      <circle cx="2" cy="2" r="1.5" fill="var(--muted-text)" opacity="0.1"/>
    </pattern>
    <linearGradient id="svgdfcfcf11-fold_0" x1="0" y1="0" x2="0" y2="1">
      <stop offset="0%" stop-color="var(--accent-1)"/>
      <stop offset="100%" stop-color="var(--accent-2)"/>
    </linearGradient>
    <linearGradient id="svgdfcfcf11-fold_1" x1="0" y1="0" x2="0" y2="1">
      <stop offset="0%" stop-color="var(--accent-2)"/>
      <stop offset="100%" stop-color="var(--accent-3)"/>
    </linearGradient>
    <linearGradient id="svgdfcfcf11-fold_2" x1="0" y1="0" x2="0" y2="1">
      <stop offset="0%" stop-color="var(--accent-3)"/>
      <stop offset="100%" stop-color="var(--accent-4)"/>
    </linearGradient>
    <linearGradient id="svgdfcfcf11-fold_3" x1="0" y1="0" x2="0" y2="1">
      <stop offset="0%" stop-color="var(--accent-4)"/>
      <stop offset="100%" stop-color="var(--accent-5)"/>
    </linearGradient>
    <radialGradient id="svgdfcfcf11-universal-edge-vignette" cx="50%" cy="50%" r="72%">
      <stop offset="0%" stop-color="var(--background)" stop-opacity="0"/>
      <stop offset="72%" stop-color="var(--background)" stop-opacity="0.12"/>
      <stop offset="100%" stop-color="var(--primary-text)" stop-opacity="0.08"/>
    </radialGradient>
    <linearGradient id="svgdfcfcf11-universal-surface-sheen" x1="0%" y1="0%" x2="100%" y2="100%">
      <stop offset="0%" stop-color="var(--art-sheen)" stop-opacity="var(--art-sheen-opacity)"/>
      <stop offset="46%" stop-color="var(--art-sheen)" stop-opacity="0.035"/>
      <stop offset="100%" stop-color="var(--art-panel-tint)" stop-opacity="0.14"/>
    </linearGradient>
    <radialGradient id="svgdfcfcf11-universal-icon-aura" cx="50%" cy="42%" r="64%">
      <stop offset="0%" stop-color="var(--art-glow)" stop-opacity="var(--art-glow-opacity)"/>
      <stop offset="100%" stop-color="var(--background)" stop-opacity="0"/>
    </radialGradient>
    <filter id="svgdfcfcf11-text-glow" x="-20%" y="-20%" width="140%" height="140%">
      <feDropShadow dx="0" dy="0" stdDeviation="2" flood-color="#000000" flood-opacity="0.4"/>
    </filter>
    <filter id="svgdfcfcf11-shadow" x="-30%" y="-30%" width="160%" height="160%">
      <feDropShadow dx="0" dy="2" stdDeviation="3" flood-color="#000000" flood-opacity="0.08"/>
      <feDropShadow dx="0" dy="6" stdDeviation="10" flood-color="#000000" flood-opacity="0.12"/>
    </filter>
    <marker id="svgdfcfcf11-arrowhead" markerWidth="10" markerHeight="7" refX="9" refY="3.5" orient="auto" markerUnits="strokeWidth">
      <polygon points="0 0, 10 3.5, 0 7" fill="var(--muted-text)" opacity="0.6"/>
    </marker>
  </defs>
  <rect width="100%" height="100%" fill="var(--background)" id="CANVAS_BG"/>
  <rect id="UNIVERSAL_EDGE_VIGNETTE" width="100%" height="100%" fill="url(#svgdfcfcf11-universal-edge-vignette)" opacity="0.62"/>
  <rect width="1920" height="1080" fill="url(#svgdfcfcf11-bg-grad)"/>
  <rect width="1920" height="1080" fill="url(#svgdfcfcf11-dot-grid)"/>
  <rect id="TITLE_FRAME" x="134" y="40" width="1652" height="70" fill="none" pointer-events="none"/>
  <text id="TITLE" x="960.0" y="59" fill="#f1f5f9" font-family="var(--font-heading)" font-size="48" font-weight="900" text-anchor="middle" filter="url(#svgdfcfcf11-drop-shadow)" style="font-size: 60px; font-family: Inter, Segoe UI, Kalam, Roboto, Helvetica, Arial, sans-serif; font-weight: 700; letter-spacing:-1.2px;" data-final-font-size="60">
    <tspan x="960.0" dy="68.00px">Berlin Air Corridor Logistics</tspan>
  </text>
  <g id="DIAGRAM_MAIN">
    <!-- Fold 0 -->
    <polygon points="470.0,290.0 470.0,390.0 370.0,790.0 370.0,690.0" fill="url(#svgdfcfcf11-fold_0)"/>
    <polygon points="470.0,290.0 470.0,390.0 370.0,790.0 370.0,690.0" fill="#000" opacity="0.3"/>
    <!-- Fold 1 -->
    <polygon points="830.0,690.0 830.0,790.0 730.0,390.0 730.0,290.0" fill="url(#svgdfcfcf11-fold_1)"/>
    <polygon points="830.0,690.0 830.0,790.0 730.0,390.0 730.0,290.0" fill="#000" opacity="0.3"/>
    <!-- Fold 2 -->
    <polygon points="1190.0,290.0 1190.0,390.0 1090.0,790.0 1090.0,690.0" fill="url(#svgdfcfcf11-fold_2)"/>
    <polygon points="1190.0,290.0 1190.0,390.0 1090.0,790.0 1090.0,690.0" fill="#000" opacity="0.3"/>
    <!-- Fold 3 -->
    <polygon points="1550.0,690.0 1550.0,790.0 1450.0,390.0 1450.0,290.0" fill="url(#svgdfcfcf11-fold_3)"/>
    <polygon points="1550.0,690.0 1550.0,790.0 1450.0,390.0 1450.0,290.0" fill="#000" opacity="0.3"/>
    <!-- Ribbon Segment 1 -->
    <rect x="10.0" y="290.0" width="460.0" height="100" rx="12" fill="var(--panel)" stroke="var(--accent-1)" stroke-width="4" filter="url(#svgdfcfcf11-drop-shadow)"/>
    <!-- Ribbon Segment 2 -->
    <rect x="370.0" y="690.0" width="460.0" height="100" rx="12" fill="var(--panel)" stroke="var(--accent-2)" stroke-width="4" filter="url(#svgdfcfcf11-drop-shadow)"/>
    <!-- Ribbon Segment 3 -->
    <rect x="730.0" y="290.0" width="460.0" height="100" rx="12" fill="var(--panel)" stroke="var(--accent-3)" stroke-width="4" filter="url(#svgdfcfcf11-drop-shadow)"/>
    <!-- Ribbon Segment 4 -->
    <rect x="1090.0" y="690.0" width="460.0" height="100" rx="12" fill="var(--panel)" stroke="var(--accent-4)" stroke-width="4" filter="url(#svgdfcfcf11-drop-shadow)"/>
    <!-- Ribbon Segment 5 -->
    <rect x="1450.0" y="290.0" width="460.0" height="100" rx="12" fill="var(--panel)" stroke="var(--accent-5)" stroke-width="4" filter="url(#svgdfcfcf11-drop-shadow)"/>
    <circle id="ITEM_1_BORDER" cx="80.0" cy="340" r="34" fill="var(--background)" stroke="var(--accent-1)" stroke-width="3" filter="url(#svgdfcfcf11-glow)"/>
    <circle id="ITEM_1_STROKE" cx="80.0" cy="340" r="40" fill="transparent" stroke="var(--accent-1)" stroke-width="2" stroke-dasharray="4 4" stroke-opacity="1.0"/>
    <g id="ITEM_1_ICON" transform="translate(56.0, 316)">
      <g transform="translate(-2.2857142857142856,-2.2857142857142856) scale(1.1428571428571428)">
        <path d="M14.9998 5.5L16.6147 4.98752L16.6662 4.93638C17.1092 4.49106 17.1092 3.78065 16.6768 3.33532C16.2443 2.88999 15.5272 2.89002 15.0842 3.32474L14.0215 4.38018L14.9998 5.5ZM28.659 17.9364L27.9804 18.6117L26.9998 17.5L27.4424 16.0851C27.8529 15.9163 28.3427 15.9981 28.6695 16.3353C29.1116 16.77 29.1116 17.4911 28.659 17.9364Z" fill="#9B9B9B"/>
        <path d="M14.1209 28.8751L12.7723 23.3207C14.5105 22.308 16.1288 21.1049 17.5973 19.7113L21.0251 16.4565L24.4676 14.906L26.411 11.3426L28.7058 9.16379C30.394 7.5596 30.434 4.88261 28.8057 3.2283C27.1674 1.57399 24.5001 1.59405 22.8818 3.26841L20.3602 5.89209L16.2607 7.61854L15.2234 11.2368L12.2628 14.3172C10.8643 15.781 9.63554 17.3952 8.6166 19.1297L3.09231 17.7261C2.78264 17.6459 2.46297 17.7361 2.2332 17.9567C1.79366 18.3978 2.03342 18.9493 2.47296 19.4105L12.4227 29.4968C12.9121 30.0181 13.4316 30.1886 13.8712 29.7474C14.1109 29.5068 14.2008 29.186 14.1209 28.8751Z" fill="#CDC4D6"/>
        <path d="M27.7929 5.76988L26.2533 4.21808C25.9708 3.92892 25.503 3.92894 25.2205 4.20846C24.9282 4.48797 24.9282 4.95062 25.2107 5.23013L26.7503 6.78191C27.0329 7.07106 27.5006 7.07107 27.7831 6.79156C28.0657 6.51204 28.0755 6.05904 27.7929 5.76988Z" fill="#00A6ED"/>
        <path d="M15.2156 11.2449L20.3817 5.8697L8.34626 3.051C7.88626 2.941 7.39625 3.011 6.97625 3.241C5.67625 3.971 5.67625 5.83101 6.96625 6.56101L15.2156 11.2449ZM26.4293 11.3253L21.0085 16.4723L25.46 24.7C26.16 26.01 28.03 26.04 28.78 24.76C29.02 24.35 29.1 23.87 29 23.4L26.4293 11.3253ZM8.15643 22.3151C8.57618 21.8934 9.26303 21.8934 9.68277 22.3246C10.1121 22.7463 10.1025 23.4363 9.67323 23.8579L6.83996 26.6849C6.42022 27.1066 5.73337 27.1066 5.31362 26.6754C4.89388 26.2537 4.89388 25.5637 5.32317 25.1421L8.15643 22.3151Z" fill="#0084CE"/>
      </g>
    </g>
    <circle id="ITEM_2_BORDER" cx="440.0" cy="740" r="34" fill="var(--background)" stroke="var(--accent-2)" stroke-width="3" filter="url(#svgdfcfcf11-glow)"/>
    <circle id="ITEM_2_STROKE" cx="440.0" cy="740" r="40" fill="transparent" stroke="var(--accent-2)" stroke-width="2" stroke-dasharray="4 4" stroke-opacity="1.0"/>
    <g id="ITEM_2_ICON" transform="translate(416.0, 716)">
      <g transform="translate(-1.210084033613446,-1.0756302521008403) scale(1.4341736694677871)" vector-effect="non-scaling-stroke" stroke-width="2.10" stroke-linecap="round" stroke-linejoin="round" stroke-opacity="1.0">
        <path d="M4.9 16.1C1 12.2 1 5.8 4.9 1.9" vector-effect="non-scaling-stroke" fill="none" stroke="var(--accent-2)"/>
        <path d="M7.8 4.7a6.14 6.14 0 0 0-.8 7.5" vector-effect="non-scaling-stroke" fill="none" stroke="var(--accent-2)"/>
        <circle cx="12" cy="9" r="2" vector-effect="non-scaling-stroke" fill="none" stroke="var(--accent-2)"/>
        <path d="M16.2 4.8c2 2 2.26 5.11.8 7.47" vector-effect="non-scaling-stroke" fill="none" stroke="var(--accent-2)"/>
        <path d="M19.1 1.9a9.96 9.96 0 0 1 0 14.1" vector-effect="non-scaling-stroke" fill="none" stroke="var(--accent-2)"/>
        <path d="M9.5 18h5" vector-effect="non-scaling-stroke" fill="none" stroke="var(--accent-2)"/>
        <path d="m8 22 4-11 4 11" vector-effect="non-scaling-stroke" fill="none" stroke="var(--accent-2)"/>
      </g>
    </g>
    <circle id="ITEM_3_BORDER" cx="800.0" cy="340" r="34" fill="var(--background)" stroke="var(--accent-3)" stroke-width="3" filter="url(#svgdfcfcf11-glow)"/>
    <circle id="ITEM_3_STROKE" cx="800.0" cy="340" r="40" fill="transparent" stroke="var(--accent-3)" stroke-width="2" stroke-dasharray="4 4" stroke-opacity="1.0"/>
    <g id="ITEM_3_ICON" transform="translate(776.0, 316)">
      <g transform="translate(-1.3559322033898304,-1.3559322033898304) scale(1.4463276836158192)" vector-effect="non-scaling-stroke" stroke-width="2.10" stroke-linecap="round" stroke-linejoin="round" stroke-opacity="1.0">
        <path d="M19.07 4.93A10 10 0 0 0 6.99 3.34" vector-effect="non-scaling-stroke" fill="none" stroke="var(--accent-3)"/>
        <path d="M4 6h.01" vector-effect="non-scaling-stroke" fill="none" stroke="var(--accent-3)"/>
        <path d="M2.29 9.62A10 10 0 1 0 21.31 8.35" vector-effect="non-scaling-stroke" fill="none" stroke="var(--accent-3)"/>
        <path d="M16.24 7.76A6 6 0 1 0 8.23 16.67" vector-effect="non-scaling-stroke" fill="none" stroke="var(--accent-3)"/>
        <path d="M12 18h.01" vector-effect="non-scaling-stroke" fill="none" stroke="var(--accent-3)"/>
        <path d="M17.99 11.66A6 6 0 0 1 15.77 16.67" vector-effect="non-scaling-stroke" fill="none" stroke="var(--accent-3)"/>
        <circle cx="12" cy="12" r="2" vector-effect="non-scaling-stroke" fill="none" stroke="var(--accent-3)"/>
        <path d="m13.41 10.59 5.66-5.66" vector-effect="non-scaling-stroke" fill="none" stroke="var(--accent-3)"/>
      </g>
    </g>
    <circle id="ITEM_4_BORDER" cx="1160.0" cy="740" r="34" fill="var(--background)" stroke="var(--accent-4)" stroke-width="3" filter="url(#svgdfcfcf11-glow)"/>
    <circle id="ITEM_4_STROKE" cx="1160.0" cy="740" r="40" fill="transparent" stroke="var(--accent-4)" stroke-width="2" stroke-dasharray="4 4" stroke-opacity="1.0"/>
    <g id="ITEM_4_ICON" transform="translate(1136.0, 716)">
      <g transform="translate(-2.285714285714284,-2.2857142857142856) scale(1.1428571428571428)" vector-effect="non-scaling-stroke" fill="var(--accent-4)" fill-opacity="1.0" stroke="none">
        <path fill="var(--accent-4)" d="m25.7 9.3l-7-7c-.2-.2-.4-.3-.7-.3H8c-1.1 0-2 .9-2 2v24c0 1.1.9 2 2 2h16c1.1 0 2-.9 2-2V10c0-.3-.1-.5-.3-.7M18 4.4l5.6 5.6H18zM24 28H8V4h8v6c0 1.1.9 2 2 2h6z" vector-effect="non-scaling-stroke" stroke="none"/>
        <path fill="var(--accent-4)" d="M10 22h12v2H10zm0-6h12v2H10z" vector-effect="non-scaling-stroke" stroke="none"/>
      </g>
    </g>
    <circle id="ITEM_5_BORDER" cx="1520.0" cy="340" r="34" fill="var(--background)" stroke="var(--accent-5)" stroke-width="3" filter="url(#svgdfcfcf11-glow)"/>
    <circle id="ITEM_5_STROKE" cx="1520.0" cy="340" r="40" fill="transparent" stroke="var(--accent-5)" stroke-width="2" stroke-dasharray="4 4" stroke-opacity="1.0"/>
    <g id="ITEM_5_ICON" transform="translate(1496.0, 316)">
      <g transform="translate(-1.3559322033898304,-1.0847457627118644) scale(0.06779661016949153)" vector-effect="non-scaling-stroke" fill="var(--accent-5)" fill-opacity="1.0" stroke="none">
        <path fill="var(--accent-5)" d="M247 16v89h9c14.9 0 23 11.7 23.8 23.6c.4 6-1.2 11.5-4.7 15.4c-3.5 4-9.1 7-19.1 7c-5 0-11.1-2.8-15.6-7.4c-4.6-4.5-7.4-10.6-7.4-15.6h-18c0 11 5.2 20.9 12.6 28.4c7.5 7.4 17.4 12.6 28.4 12.6c14 0 25.4-5 32.5-13c7.2-8.1 10-18.6 9.3-28.6c-1.2-17.5-13.4-35.18-32.8-39.42V16zm-47.9 140.5L61.34 247h32.7l114.86-75.5zm113.8 0l-9.8 15L418 247h32.6zM41 265v222h430V265zm38 23h18v176H79zm48 0h18v176h-18zm48 0h18v176h-18zm48 0h18v176h-18zm48 0h18v176h-18zm48 0h18v176h-18zm48 0h18v176h-18zm48 0h18v176h-18z" vector-effect="non-scaling-stroke" stroke="none"/>
      </g>
    </g>
    <!-- Node 1 Text -->
    <rect id="ITEM_1_HEAD_FRAME" x="40.0" y="165" width="400" height="35" fill="none" pointer-events="none"/>
    <rect id="ITEM_1_BODY_FRAME" x="50" y="200" width="380" height="120" fill="none" pointer-events="none"/>
    <rect id="ITEM_1_TEXT_BG" x="22.0" y="149.0" width="436.0" height="187.0" rx="22" fill="var(--panel)" fill-opacity="0.94" stroke="var(--primary-text)" stroke-opacity="0.12" stroke-width="1.5"/>
    <text id="ITEM_1_HEAD" data-bg-id="ITEM_1_TEXT_BG" x="240.0" y="165.0" fill="var(--accent-1)" font-family="var(--font-heading)" font-size="26" font-weight="bold" text-anchor="middle" fill-opacity="1.0" stroke="none" style="font-size: 30px; font-family: Inter, Segoe UI, Kalam, Roboto, Helvetica, Arial, sans-serif; font-weight: 700; letter-spacing:-0.4px;" data-final-font-size="30">
      <tspan x="240.0" dy="25.75px">Corridor Establishment</tspan>
    </text>
    <text id="ITEM_1_BODY" data-bg-id="ITEM_1_TEXT_BG" x="240.0" y="200.0" fill="var(--primary-text)" font-family="var(--font-body)" font-size="20" opacity="0.8" text-anchor="middle" style="font-size: 26px; font-family: Inter, Segoe UI, Kalam, Roboto, Helvetica, Arial, sans-serif; font-weight: 400;" data-final-font-size="26">
      <tspan x="240.0" dy="32.84px">Three 20-mile wide corridors</tspan>
      <tspan x="240.0" dy="29.90px">connect West Berlin to Allies</tspan>
    </text>
    <!-- Node 2 Text -->
    <rect id="ITEM_2_HEAD_FRAME" x="400.0" y="810.0" width="400" height="40" fill="none" pointer-events="none"/>
    <rect id="ITEM_2_BODY_FRAME" x="410" y="850.0" width="380" height="140" fill="none" pointer-events="none"/>
    <rect id="ITEM_2_TEXT_BG" x="382.0" y="794.0" width="436.0" height="212.0" rx="22" fill="var(--panel)" fill-opacity="0.94" stroke="var(--primary-text)" stroke-opacity="0.12" stroke-width="1.5"/>
    <text id="ITEM_2_HEAD" data-bg-id="ITEM_2_TEXT_BG" x="600.0" y="810.0" fill="var(--accent-2)" font-family="var(--font-heading)" font-size="26" font-weight="bold" text-anchor="middle" fill-opacity="1.0" stroke="none" style="font-size: 30px; font-family: Inter, Segoe UI, Kalam, Roboto, Helvetica, Arial, sans-serif; font-weight: 700; letter-spacing:-0.4px;" data-final-font-size="30">
      <tspan x="600.0" dy="28.25px">Safety Centre Regulation</tspan>
    </text>
    <text id="ITEM_2_BODY" data-bg-id="ITEM_2_TEXT_BG" x="600.0" y="850.0" fill="var(--primary-text)" font-family="var(--font-body)" font-size="20" opacity="0.8" text-anchor="middle" style="font-size: 26px; font-family: Inter, Segoe UI, Kalam, Roboto, Helvetica, Arial, sans-serif; font-weight: 400;" data-final-font-size="26">
      <tspan x="600.0" dy="30.86px">Berlin Air Safety Centre</tspan>
      <tspan x="600.0" dy="29.90px">manages flight rules</tspan>
      <tspan x="600.0" dy="29.90px">and instructions</tspan>
    </text>
    <!-- Node 3 Text -->
    <rect id="ITEM_3_HEAD_FRAME" x="760.0" y="165" width="400" height="35" fill="none" pointer-events="none"/>
    <rect id="ITEM_3_BODY_FRAME" x="770" y="200" width="380" height="120" fill="none" pointer-events="none"/>
    <rect id="ITEM_3_TEXT_BG" x="742.0" y="149.0" width="436.0" height="187.0" rx="22" fill="var(--panel)" fill-opacity="0.94" stroke="var(--primary-text)" stroke-opacity="0.12" stroke-width="1.5"/>
    <text id="ITEM_3_HEAD" data-bg-id="ITEM_3_TEXT_BG" x="960.0" y="165.0" fill="var(--accent-3)" font-family="var(--font-heading)" font-size="26" font-weight="bold" text-anchor="middle" fill-opacity="1.0" stroke="none" style="font-size: 30px; font-family: Inter, Segoe UI, Kalam, Roboto, Helvetica, Arial, sans-serif; font-weight: 700; letter-spacing:-0.4px;" data-final-font-size="30">
      <tspan x="960.0" dy="25.75px">Radar Infrastructure</tspan>
    </text>
    <text id="ITEM_3_BODY" data-bg-id="ITEM_3_TEXT_BG" x="960.0" y="200.0" fill="var(--primary-text)" font-family="var(--font-body)" font-size="20" opacity="0.8" text-anchor="middle" style="font-size: 26px; font-family: Inter, Segoe UI, Kalam, Roboto, Helvetica, Arial, sans-serif; font-weight: 400;" data-final-font-size="26">
      <tspan x="960.0" dy="26.86px">Tempelhof airport installed</tspan>
      <tspan x="960.0" dy="29.90px">long-distance radar for</tspan>
      <tspan x="960.0" dy="29.90px">corridor monitoring</tspan>
    </text>
    <!-- Node 4 Text -->
    <rect id="ITEM_4_HEAD_FRAME" x="1120.0" y="810.0" width="400" height="40" fill="none" pointer-events="none"/>
    <rect id="ITEM_4_BODY_FRAME" x="1130" y="850.0" width="380" height="140" fill="none" pointer-events="none"/>
    <rect id="ITEM_4_TEXT_BG" x="1102.0" y="794.0" width="436.0" height="212.0" rx="22" fill="var(--panel)" fill-opacity="0.94" stroke="var(--primary-text)" stroke-opacity="0.12" stroke-width="1.5"/>
    <text id="ITEM_4_HEAD" data-bg-id="ITEM_4_TEXT_BG" x="1320.0" y="810.0" fill="var(--accent-4)" font-family="var(--font-heading)" font-size="26" font-weight="bold" text-anchor="middle" fill-opacity="1.0" stroke="none" style="font-size: 30px; font-family: Inter, Segoe UI, Kalam, Roboto, Helvetica, Arial, sans-serif; font-weight: 700; letter-spacing:-0.4px;" data-final-font-size="30">
      <tspan x="1320.0" dy="28.25px">Diplomatic Settlement</tspan>
    </text>
    <text id="ITEM_4_BODY" data-bg-id="ITEM_4_TEXT_BG" x="1320.0" y="850.0" fill="var(--primary-text)" font-family="var(--font-body)" font-size="20" opacity="0.8" text-anchor="middle" style="font-size: 26px; font-family: Inter, Segoe UI, Kalam, Roboto, Helvetica, Arial, sans-serif; font-weight: 400;" data-final-font-size="26">
      <tspan x="1320.0" dy="30.86px">Flight altitudes and routes</tspan>
      <tspan x="1320.0" dy="29.90px">served as Four-Power</tspan>
      <tspan x="1320.0" dy="29.90px">agreements</tspan>
    </text>
    <!-- Node 5 Text -->
    <rect id="ITEM_5_HEAD_FRAME" x="1480.0" y="165" width="400" height="35" fill="none" pointer-events="none"/>
    <rect id="ITEM_5_BODY_FRAME" x="1490" y="200" width="380" height="120" fill="none" pointer-events="none"/>
    <rect id="ITEM_5_TEXT_BG" x="1462.0" y="149.0" width="436.0" height="187.0" rx="22" fill="var(--panel)" fill-opacity="0.94" stroke="var(--primary-text)" stroke-opacity="0.12" stroke-width="1.5"/>
    <text id="ITEM_5_HEAD" data-bg-id="ITEM_5_TEXT_BG" x="1680.0" y="165.0" fill="var(--accent-5)" font-family="var(--font-heading)" font-size="26" font-weight="bold" text-anchor="middle" fill-opacity="1.0" stroke="none" style="font-size: 30px; font-family: Inter, Segoe UI, Kalam, Roboto, Helvetica, Arial, sans-serif; font-weight: 700; letter-spacing:-0.4px;" data-final-font-size="30">
      <tspan x="1680.0" dy="25.75px">Crisis Management</tspan>
    </text>
    <text id="ITEM_5_BODY" data-bg-id="ITEM_5_TEXT_BG" x="1680.0" y="200.0" fill="var(--primary-text)" font-family="var(--font-body)" font-size="20" opacity="0.8" text-anchor="middle" style="font-size: 26px; font-family: Inter, Segoe UI, Kalam, Roboto, Helvetica, Arial, sans-serif; font-weight: 400;" data-final-font-size="26">
      <tspan x="1680.0" dy="26.86px">Berlin Blockade required</tspan>
      <tspan x="1680.0" dy="29.90px">constant air supply</tspan>
      <tspan x="1680.0" dy="29.90px">via corridors</tspan>
    </text>
  </g>
</svg>
