<?xml version='1.0' encoding='utf-8'?>
<svg xmlns="http://www.w3.org/2000/svg" width="1920" height="1080" viewBox="0 0 1920 1080" data-theme="dark">
  <style>
        @font-face {
            font-family: 'Inter';
            src: url('assets/fonts/Inter-Regular.ttf') format('truetype');
            font-weight: 400;
            font-style: normal;
            font-display: swap;
        }
        @font-face {
            font-family: 'Inter';
            src: url('assets/fonts/Inter-Bold.ttf') format('truetype');
            font-weight: 600;
            font-style: normal;
            font-display: swap;
        }
        @font-face {
            font-family: 'Inter';
            src: url('assets/fonts/Inter-Bold.ttf') format('truetype');
            font-weight: 800;
            font-style: normal;
            font-display: swap;
        }
        
:root {
    --background: #0f172a;
    --panel: #1e293b;
    --primary-text: #f1f5f9;
    --muted-text: #94a3b8;
    --inverse-text: #0f172a;
    --border: #334155;
    --shadow-color: #000000;
    --icon-pad-bg: #1e293b;
    --art-glow: #7dd3fc;
    --art-glow-opacity: 0.18;
    --art-sheen: #ffffff;
    --art-sheen-opacity: 0.18;
    --art-shadow: #000000;
    --art-shadow-opacity: 0.28;
    --art-muted-line: #64748b;
    --art-panel-tint: #1e293b;
    --font-family: 'Inter', 'Segoe UI', 'Kalam', Roboto, Helvetica, Arial, sans-serif;
    --radius-xl: 16px;
    --font-family-headline: 'Inter', 'Segoe UI', 'Kalam', Roboto, Helvetica, Arial, sans-serif;
    --font-family-body: 'Inter', 'Segoe UI', 'Kalam', Roboto, Helvetica, Arial, sans-serif;
    --font-heading: 'Inter', 'Segoe UI', 'Kalam', Roboto, Helvetica, Arial, sans-serif;
    --font-body: 'Inter', 'Segoe UI', 'Kalam', Roboto, Helvetica, Arial, sans-serif;
    --font-size-h1: 56px;
    --font-size-h2: 40px;
    --font-size-h3: 28px;
    --font-size-body: 24px;
    --font-size-caption: 18px;
    --secondary-text: var(--muted-text);
    --panel-border: var(--border);
    --font-weight-normal: 400;
    --font-weight-medium: 500;
    --font-weight-semibold: 600;
    --font-weight-bold: 700;
    --spacing-gutter-pct: 0.07;
    --spacing-top-pct: 0.15;
    --spacing-bottom-pct: 0.07;
    --spacing-title-y-pct: 0.055;
    --accent-1: #22d3ee;
    --accent-2: #38bdf8;
    --accent-3: #60a5fa;
    --accent-4: #818cf8;
    --accent-5: #a78bfa;
    --accent-6: #2dd4bf;
}
:root[data-theme="dark"] {
    --background: #0f172a;
    --panel: #1e293b;
    --primary-text: #f1f5f9;
    --muted-text: #94a3b8;
    --inverse-text: #0f172a;
    --border: #334155;
    --shadow-color: #000000;
    --icon-pad-bg: #1e293b;
    --art-glow: #7dd3fc;
    --art-glow-opacity: 0.18;
    --art-sheen: #ffffff;
    --art-sheen-opacity: 0.18;
    --art-shadow: #000000;
    --art-shadow-opacity: 0.28;
    --art-muted-line: #64748b;
    --art-panel-tint: #1e293b;
    --accent-1: #22d3ee;
    --accent-2: #38bdf8;
    --accent-3: #60a5fa;
    --accent-4: #818cf8;
    --accent-5: #a78bfa;
    --accent-6: #2dd4bf;
}
:root[data-theme="light"] {
    --background: #f8fafc;
    --panel: #ffffff;
    --primary-text: #0f172a;
    --muted-text: #64748b;
    --inverse-text: #ffffff;
    --border: #e2e8f0;
    --shadow-color: #000000;
    --icon-pad-bg: #1e293b;
    --art-glow: #0891b2;
    --art-glow-opacity: 0.10;
    --art-sheen: #ffffff;
    --art-sheen-opacity: 0.34;
    --art-shadow: #0f172a;
    --art-shadow-opacity: 0.14;
    --art-muted-line: #94a3b8;
    --art-panel-tint: #f1f5f9;
    --accent-1: #0891b2;
    --accent-2: #0284c7;
    --accent-3: #2563eb;
    --accent-4: #4f46e5;
    --accent-5: #7c3aed;
    --accent-6: #0d9488;
}</style>
  <rect x="0" y="0" width="1.92E+3" height="1.08E+3" fill="#252a34" stroke="none" id="programmatic_background"/>
  <line id="HEADER_DECOR" x1="960.0" x2="1080.0" y1="135.0" y2="135.0" stroke="var(--accent-1)" stroke-width="6" stroke-linecap="round"/>
  <defs>
    <pattern id="svgef8f2ffa-napkin-hatch" patternUnits="userSpaceOnUse" width="12" height="12">
      <path d="M -3 12 L 12 -3 M 0 15 L 15 0" fill="none" stroke="var(--primary-text)" stroke-width="1" stroke-opacity="0.05"/>
    </pattern>
    <filter id="svgef8f2ffa-shadow" x="-30%" y="-30%" width="160%" height="160%">
      <feDropShadow dx="0" dy="2" stdDeviation="3" flood-color="#000000" flood-opacity="0.08"/>
      <feDropShadow dx="0" dy="6" stdDeviation="10" flood-color="#000000" flood-opacity="0.12"/>
    </filter>
    <radialGradient id="svgef8f2ffa-universal-edge-vignette" cx="50%" cy="50%" r="72%">
      <stop offset="0%" stop-color="var(--background)" stop-opacity="0"/>
      <stop offset="72%" stop-color="var(--background)" stop-opacity="0.12"/>
      <stop offset="100%" stop-color="var(--primary-text)" stop-opacity="0.08"/>
    </radialGradient>
    <linearGradient id="svgef8f2ffa-universal-surface-sheen" x1="0%" y1="0%" x2="100%" y2="100%">
      <stop offset="0%" stop-color="var(--art-sheen)" stop-opacity="var(--art-sheen-opacity)"/>
      <stop offset="46%" stop-color="var(--art-sheen)" stop-opacity="0.035"/>
      <stop offset="100%" stop-color="var(--art-panel-tint)" stop-opacity="0.14"/>
    </linearGradient>
    <radialGradient id="svgef8f2ffa-universal-icon-aura" cx="50%" cy="42%" r="64%">
      <stop offset="0%" stop-color="var(--art-glow)" stop-opacity="var(--art-glow-opacity)"/>
      <stop offset="100%" stop-color="var(--background)" stop-opacity="0"/>
    </radialGradient>
    <filter id="svgef8f2ffa-text-glow" x="-20%" y="-20%" width="140%" height="140%">
      <feDropShadow dx="0" dy="0" stdDeviation="2" flood-color="#000000" flood-opacity="0.4"/>
    </filter>
    <marker id="svgef8f2ffa-arrowhead" markerWidth="10" markerHeight="7" refX="9" refY="3.5" orient="auto" markerUnits="strokeWidth">
      <polygon points="0 0, 10 3.5, 0 7" fill="var(--muted-text)" opacity="0.6"/>
    </marker>
  </defs>
  <rect width="100%" height="100%" fill="var(--background)" id="CANVAS_BG"/>
  <rect width="100%" height="100%" fill="url(#svgef8f2ffa-napkin-hatch)"/>
  <rect id="UNIVERSAL_EDGE_VIGNETTE" width="100%" height="100%" fill="url(#svgef8f2ffa-universal-edge-vignette)" opacity="0.62"/>
  <text id="TITLE" x="960.0" y="59" text-anchor="middle" font-size="63" font-weight="700" fill="#f1f5f9" style="font-size: 60px; font-family: Inter, Segoe UI, Kalam, Roboto, Helvetica, Arial, sans-serif; font-weight: 700; letter-spacing:-1.2px;" data-final-font-size="60">
    <tspan x="960.0" dy="68.00px">Falcon 9 R/B Reentry Sequence</tspan>
  </text>
  <rect id="TITLE_FRAME" x="134" y="59" width="1652" height="103" fill="none"/>
  <g id="DIAGRAM_SCALER">
    <line x1="960" y1="200" x2="960" y2="960" stroke="var(--accent-1)" stroke-width="34" stroke-linecap="round" opacity="0.055"/>
    <line x1="960" y1="200" x2="960" y2="960" stroke="var(--accent-1)" stroke-width="34" stroke-linecap="round" opacity="0.055"/>
    <line x1="960" y1="200" x2="960" y2="960" stroke="var(--accent-1)" stroke-width="34" stroke-linecap="round" opacity="0.055"/>
    <line x1="960" y1="200" x2="960" y2="960" stroke="var(--accent-1)" stroke-width="34" stroke-linecap="round" opacity="0.055"/>
    <line x1="960" y1="200" x2="960" y2="960" stroke="var(--accent-1)" stroke-width="34" stroke-linecap="round" opacity="0.055"/>
    <line x1="960" y1="200" x2="960" y2="960" stroke="var(--accent-1)" stroke-width="34" stroke-linecap="round" opacity="0.055"/>
    <line x1="960" y1="200" x2="960" y2="960" stroke="var(--accent-1)" stroke-width="34" stroke-linecap="round" opacity="0.055"/>
    <line x1="960" y1="200" x2="960" y2="960" stroke="var(--accent-1)" stroke-width="34" stroke-linecap="round" opacity="0.055"/>
    <line x1="960" y1="200" x2="960" y2="960" stroke="var(--accent-1)" stroke-width="34" stroke-linecap="round" opacity="0.055"/>
    <line x1="960" y1="200" x2="960" y2="960" stroke="var(--accent-1)" stroke-width="34" stroke-linecap="round" opacity="0.055"/>
    <line x1="960" y1="200" x2="960" y2="960" stroke="var(--accent-1)" stroke-width="34" stroke-linecap="round" opacity="0.055"/>
    <line x1="960" y1="200" x2="960" y2="960" stroke="var(--accent-1)" stroke-width="34" stroke-linecap="round" opacity="0.055"/>
    <line x1="960" y1="200" x2="960" y2="960" stroke="var(--accent-1)" stroke-width="34" stroke-linecap="round" opacity="0.055"/>
    <line x1="960" y1="200" x2="960" y2="960" stroke="var(--accent-1)" stroke-width="34" stroke-linecap="round" opacity="0.055"/>
    <line x1="960" y1="200" x2="960" y2="960" stroke="var(--accent-1)" stroke-width="34" stroke-linecap="round" opacity="0.055"/>
    <line x1="960" y1="200" x2="960" y2="960" stroke="var(--accent-1)" stroke-width="34" stroke-linecap="round" opacity="0.055"/>
    <line x1="960" y1="200" x2="960" y2="960" stroke="var(--accent-1)" stroke-width="34" stroke-linecap="round" opacity="0.055"/>
    <line x1="960" y1="200" x2="960" y2="960" stroke="var(--accent-1)" stroke-width="34" stroke-linecap="round" opacity="0.055"/>
    <line x1="960" y1="200" x2="960" y2="960" stroke="var(--accent-1)" stroke-width="34" stroke-linecap="round" opacity="0.055"/>
    <line x1="960" y1="200" x2="960" y2="960" stroke="var(--accent-1)" stroke-width="34" stroke-linecap="round" opacity="0.055"/>
    <line x1="960" y1="200" x2="960" y2="960" stroke="var(--accent-1)" stroke-width="34" stroke-linecap="round" opacity="0.055"/>
    <line x1="960" y1="200" x2="960" y2="960" stroke="var(--accent-1)" stroke-width="34" stroke-linecap="round" opacity="0.055"/>
    <line x1="960" y1="200" x2="960" y2="960" stroke="var(--accent-1)" stroke-width="34" stroke-linecap="round" opacity="0.055"/>
    <line x1="960" y1="200" x2="960" y2="960" stroke="var(--accent-1)" stroke-width="34" stroke-linecap="round" opacity="0.055"/>
    <line x1="960" y1="200" x2="960" y2="960" stroke="var(--accent-1)" stroke-width="34" stroke-linecap="round" opacity="0.055"/>
    <line x1="960" y1="200" x2="960" y2="960" stroke="var(--accent-1)" stroke-width="34" stroke-linecap="round" opacity="0.055"/>
    <line x1="960" y1="200" x2="960" y2="960" stroke="var(--accent-1)" stroke-width="34" stroke-linecap="round" opacity="0.055"/>
    <line x1="960" y1="200" x2="960" y2="960" stroke="var(--accent-1)" stroke-width="34" stroke-linecap="round" opacity="0.055"/>
    <line x1="960" y1="200" x2="960" y2="960" stroke="var(--accent-1)" stroke-width="34" stroke-linecap="round" opacity="0.055"/>
    <line x1="960" y1="200" x2="960" y2="960" stroke="var(--border)" stroke-width="20" stroke-linecap="round" opacity="0.1"/>
    <line x1="960" y1="200" x2="960" y2="960" stroke="var(--muted-text)" stroke-width="7" stroke-linecap="round" opacity="0.48"/>
    <circle cx="960" cy="200" r="10" fill="var(--border)" opacity="0.35"/>
    <path d="M 960 992 L 980 960 L 940 960 Z" fill="var(--muted-text)" opacity="0.5"/>
    <g transform="translate(960, 240)">
      <circle cx="0" cy="0" r="18" fill="var(--panel)" stroke="var(--border)" stroke-width="4"/>
      <circle cx="0" cy="0" r="7" fill="var(--accent-1)"/>
      <line x1="0" y1="0" x2="220" y2="0" stroke="var(--accent-1)" stroke-width="16" stroke-linecap="round" opacity="0.18"/>
      <line x1="0" y1="0" x2="220" y2="0" stroke="var(--accent-1)" stroke-width="4" stroke-linecap="round"/>
      <circle cx="220" cy="0" r="60" fill="var(--accent-1)" opacity="0.14"/>
      <circle id="ITEM_1_NODE" cx="220" cy="0" r="48" fill="var(--panel)" stroke="var(--accent-1)" stroke-width="3"/>
      <circle id="ITEM_1_PAD" cx="220" cy="0" r="42" fill="var(--icon-pad-bg)" stroke="var(--primary-text)" opacity="0.94" fill-opacity="0.9" stroke-width="2"/>
      <circle id="ITEM_1_PAD_INNER" cx="220" cy="0" r="32.76" fill="var(--accent-1)" fill-opacity="0.22"/>
      <circle cx="220" cy="0" r="32" fill="none" stroke="var(--accent-1)" stroke-width="3" stroke-dasharray="6 4"/>
      <g id="ITEM_1_ICON" transform="translate(190, -30)" data-icon-size="60" stroke-dasharray="6 4">
        <g transform="translate(-7.439999999999998,-9.779999999999998) scale(2.34)" vector-effect="non-scaling-stroke" fill="#f1f5f9" fill-opacity="1.0" stroke="none">
          <path fill="#f1f5f9" d="m29.81 16l-7-9.56A1 1 0 0 0 22 6H3a1 1 0 0 0-1 1v17a1 1 0 0 0 1 1h2.14a4 4 0 0 0 7.72 0h6.28a4 4 0 0 0 7.72 0H29a1 1 0 0 0 1-1v-7.44a1 1 0 0 0-.19-.56M20 8h1.49l5.13 7H20ZM4 8h14v7H4Zm5 18a2 2 0 1 1 2-2a2 2 0 0 1-2 2m14 0a2 2 0 1 1 2-2a2 2 0 0 1-2 2m5-3h-1.14a4 4 0 0 0-7.72 0h-6.28a4 4 0 0 0-7.72 0H4v-6h24Z" vector-effect="non-scaling-stroke" stroke="none"/>
        </g>
      </g>
      <g transform="translate(332, 0)">
        <path id="ITEM_1_TEXT_BG" d="M -24 -46 L 374 -46 L 414 -8 L 414 140 L 30 140 L -46 82 L -46 16 Z" fill="var(--panel)" fill-opacity="0.96" stroke="var(--primary-text)" stroke-opacity="0.12" stroke-width="1.5" filter="url(#svgef8f2ffa-shadow)"/>
        <rect x="386" y="-28" width="10" height="104" rx="5" fill="var(--accent-1)" opacity="0.7"/>
        <line x1="22" y1="10" x2="348" y2="10" stroke="var(--accent-1)" stroke-width="3" opacity="0.3"/>
        <text id="ITEM_1_HEAD" data-bg-id="ITEM_1_TEXT_BG" font-weight="700" font-size="26" fill="var(--accent-1)" x="22.0" y="-28.0" fill-opacity="1.0" stroke="none" style="font-size: 30px; font-family: Inter, Segoe UI, Kalam, Roboto, Helvetica, Arial, sans-serif; font-weight: 700; letter-spacing:-0.4px;" data-final-font-size="30">
          <tspan x="22.0" dy="25.25px">Launch Failure</tspan>
        </text>
        <rect id="ITEM_1_HEAD_FRAME" x="22" y="-28" width="334" height="34" fill="none"/>
        <text id="ITEM_1_BODY" data-bg-id="ITEM_1_TEXT_BG" font-size="18.5" fill="var(--primary-text)" x="22.0" y="20.0" style="font-size: 26px; font-family: Inter, Segoe UI, Kalam, Roboto, Helvetica, Arial, sans-serif; font-weight: 400;" data-final-font-size="26">
          <tspan x="22.0" dy="23.24px">Second stage fails</tspan>
          <tspan x="22.0" dy="29.90px">to deorbit on February 2</tspan>
        </text>
        <rect id="ITEM_1_BODY_FRAME" x="22" y="20" width="352" height="72" fill="none"/>
      </g>
    </g>
    <g transform="translate(960, 395)">
      <circle cx="0" cy="0" r="18" fill="var(--panel)" stroke="var(--border)" stroke-width="4"/>
      <circle cx="0" cy="0" r="7" fill="var(--accent-2)"/>
      <line x1="0" y1="0" x2="-220" y2="0" stroke="var(--accent-2)" stroke-width="16" stroke-linecap="round" opacity="0.18"/>
      <line x1="0" y1="0" x2="-220" y2="0" stroke="var(--accent-2)" stroke-width="4" stroke-linecap="round"/>
      <circle cx="-220" cy="0" r="60" fill="var(--accent-2)" opacity="0.14"/>
      <circle id="ITEM_2_NODE" cx="-220" cy="0" r="48" fill="var(--panel)" stroke="var(--accent-2)" stroke-width="3"/>
      <circle id="ITEM_2_PAD" cx="-220" cy="0" r="42" fill="var(--icon-pad-bg)" stroke="var(--primary-text)" opacity="0.94" fill-opacity="0.9" stroke-width="2"/>
      <circle id="ITEM_2_PAD_INNER" cx="-220" cy="0" r="32.76" fill="var(--accent-2)" fill-opacity="0.22"/>
      <circle cx="-220" cy="0" r="32" fill="none" stroke="var(--accent-2)" stroke-width="3" stroke-dasharray="6 4"/>
      <g id="ITEM_2_ICON" transform="translate(-250, -30)" data-icon-size="60" stroke-dasharray="6 4">
        <g transform="translate(-16.592,-15.135999999999997) scale(3.8826666666666663)" vector-effect="non-scaling-stroke" fill="#f1f5f9" fill-opacity="1.0" stroke="none">
          <path fill="#f1f5f9" d="M12 20a6 6 0 0 1-6-6c0-4 6-10.75 6-10.75S18 10 18 14a6 6 0 0 1-6 6" vector-effect="non-scaling-stroke" stroke="none"/>
        </g>
      </g>
      <g transform="translate(-332, 0)">
        <path id="ITEM_2_TEXT_BG" d="M 24 -46 L -374 -46 L -414 -8 L -414 140 L -30 140 L 46 82 L 46 16 Z" fill="var(--panel)" fill-opacity="0.96" stroke="var(--primary-text)" stroke-opacity="0.12" stroke-width="1.5" filter="url(#svgef8f2ffa-shadow)"/>
        <rect x="-396" y="-28" width="10" height="104" rx="5" fill="var(--accent-2)" opacity="0.7"/>
        <line x1="-22" y1="10" x2="-348" y2="10" stroke="var(--accent-2)" stroke-width="3" opacity="0.3"/>
        <text id="ITEM_2_HEAD" data-bg-id="ITEM_2_TEXT_BG" text-anchor="end" font-weight="700" font-size="26" fill="var(--accent-2)" x="-22.0" y="-28.0" fill-opacity="1.0" stroke="none" style="font-size: 30px; font-family: Inter, Segoe UI, Kalam, Roboto, Helvetica, Arial, sans-serif; font-weight: 700; letter-spacing:-0.4px;" data-final-font-size="30">
          <tspan x="-22.0" dy="25.25px">Atmospheric Entry</tspan>
        </text>
        <rect id="ITEM_2_HEAD_FRAME" x="-356" y="-28" width="334" height="34" fill="none"/>
        <text id="ITEM_2_BODY" data-bg-id="ITEM_2_TEXT_BG" text-anchor="end" font-size="18.5" fill="var(--primary-text)" x="-22.0" y="20.0" style="font-size: 26px; font-family: Inter, Segoe UI, Kalam, Roboto, Helvetica, Arial, sans-serif; font-weight: 400;" data-final-font-size="26">
          <tspan x="-22.0" dy="23.24px">Object enters atmosphere</tspan>
          <tspan x="-22.0" dy="29.90px">at 03:45 UTC over Ireland</tspan>
        </text>
        <rect id="ITEM_2_BODY_FRAME" x="-374" y="20" width="352" height="72" fill="none"/>
      </g>
    </g>
    <g transform="translate(960, 550)">
      <circle cx="0" cy="0" r="18" fill="var(--panel)" stroke="var(--border)" stroke-width="4"/>
      <circle cx="0" cy="0" r="7" fill="var(--accent-3)"/>
      <line x1="0" y1="0" x2="220" y2="0" stroke="var(--accent-3)" stroke-width="16" stroke-linecap="round" opacity="0.18"/>
      <line x1="0" y1="0" x2="220" y2="0" stroke="var(--accent-3)" stroke-width="4" stroke-linecap="round"/>
      <circle cx="220" cy="0" r="60" fill="var(--accent-3)" opacity="0.14"/>
      <circle id="ITEM_3_NODE" cx="220" cy="0" r="48" fill="var(--panel)" stroke="var(--accent-3)" stroke-width="3"/>
      <circle id="ITEM_3_PAD" cx="220" cy="0" r="42" fill="var(--icon-pad-bg)" stroke="var(--primary-text)" opacity="0.94" fill-opacity="0.9" stroke-width="2"/>
      <circle id="ITEM_3_PAD_INNER" cx="220" cy="0" r="32.76" fill="var(--accent-3)" fill-opacity="0.22"/>
      <circle cx="220" cy="0" r="32" fill="none" stroke="var(--accent-3)" stroke-width="3" stroke-dasharray="6 4"/>
      <g id="ITEM_3_ICON" transform="translate(190, -30)" data-icon-size="60" stroke-dasharray="6 4">
        <g transform="translate(-10.192941176470583,-4.962352941176468) scale(0.1376470588235294)" vector-effect="non-scaling-stroke" fill="#f1f5f9" fill-opacity="1.0" stroke="none">
          <path fill="#f1f5f9" d="m431.688 18.813l-83.594 65.75L456.5 63.03l-24.813-44.218zm-121.375.906l-21.47 91.5l79.72-91.5zm-160.657 4.405l-2.187 6.25c-13.237 37.557-21.314 79.002-21.314 118.094c0 53.795 15.034 93.182 40.22 118.874c18.918 19.3 43.185 30.496 69.78 34.875c17.132 48.134 16.18 101.07-2.47 148.78c-30.572 5.112-60.267 18.292-86.342 39.53H378.53c-26.062-21.23-55.75-34.383-86.31-39.5c-18.647-47.685-19.602-100.598-2.5-148.717c26.782-4.308 51.187-15.52 70.124-34.97c13.345-13.706 23.776-31.308 30.625-52.906l-84.75-71.656l-51.595-1.093L306.28 261.31l-50.186-73.687l-79.156 64.47l63.812-86.94l-16.28-23.905l-53.845-16.156l-9.813-2.938l3.844-9.53l36-88.5zm71.156 0l-34.968 86l48.562 14.594l32.78-33.69l-17.436-66.905h-28.938zM395.438 97.03l-81.78 28l81.906 69.25c2.706-13.91 4.156-29.165 4.156-45.81c0-16.88-1.513-34.186-4.283-51.44z" vector-effect="non-scaling-stroke" stroke="none"/>
        </g>
      </g>
      <g transform="translate(332, 0)">
        <path id="ITEM_3_TEXT_BG" d="M -24 -46 L 374 -46 L 414 -8 L 414 140 L 30 140 L -46 82 L -46 16 Z" fill="var(--panel)" fill-opacity="0.96" stroke="var(--primary-text)" stroke-opacity="0.12" stroke-width="1.5" filter="url(#svgef8f2ffa-shadow)"/>
        <rect x="386" y="-28" width="10" height="104" rx="5" fill="var(--accent-3)" opacity="0.7"/>
        <line x1="22" y1="10" x2="348" y2="10" stroke="var(--accent-3)" stroke-width="3" opacity="0.3"/>
        <text id="ITEM_3_HEAD" data-bg-id="ITEM_3_TEXT_BG" font-weight="700" font-size="26" fill="var(--accent-3)" x="22.0" y="-28.0" fill-opacity="1.0" stroke="none" style="font-size: 30px; font-family: Inter, Segoe UI, Kalam, Roboto, Helvetica, Arial, sans-serif; font-weight: 700; letter-spacing:-0.4px;" data-final-font-size="30">
          <tspan x="22.0" dy="25.25px">Fragmentation Phase</tspan>
        </text>
        <rect id="ITEM_3_HEAD_FRAME" x="22" y="-28" width="334" height="34" fill="none"/>
        <text id="ITEM_3_BODY" data-bg-id="ITEM_3_TEXT_BG" font-size="18.5" fill="var(--primary-text)" x="22.0" y="20.0" style="font-size: 26px; font-family: Inter, Segoe UI, Kalam, Roboto, Helvetica, Arial, sans-serif; font-weight: 400;" data-final-font-size="26">
          <tspan x="22.0" dy="23.24px">Rocket body breaks into</tspan>
          <tspan x="22.0" dy="29.90px">multiple glowing pieces</tspan>
        </text>
        <rect id="ITEM_3_BODY_FRAME" x="22" y="20" width="352" height="72" fill="none"/>
      </g>
    </g>
    <g transform="translate(960, 705)">
      <circle cx="0" cy="0" r="18" fill="var(--panel)" stroke="var(--border)" stroke-width="4"/>
      <circle cx="0" cy="0" r="7" fill="var(--accent-4)"/>
      <line x1="0" y1="0" x2="-220" y2="0" stroke="var(--accent-4)" stroke-width="16" stroke-linecap="round" opacity="0.18"/>
      <line x1="0" y1="0" x2="-220" y2="0" stroke="var(--accent-4)" stroke-width="4" stroke-linecap="round"/>
      <circle cx="-220" cy="0" r="60" fill="var(--accent-4)" opacity="0.14"/>
      <circle id="ITEM_4_NODE" cx="-220" cy="0" r="48" fill="var(--panel)" stroke="var(--accent-4)" stroke-width="3"/>
      <circle id="ITEM_4_PAD" cx="-220" cy="0" r="42" fill="var(--icon-pad-bg)" stroke="var(--primary-text)" opacity="0.94" fill-opacity="0.9" stroke-width="2"/>
      <circle id="ITEM_4_PAD_INNER" cx="-220" cy="0" r="32.76" fill="var(--accent-4)" fill-opacity="0.22"/>
      <circle cx="-220" cy="0" r="32" fill="none" stroke="var(--accent-4)" stroke-width="3" stroke-dasharray="6 4"/>
      <g id="ITEM_4_ICON" transform="translate(-250, -30)" data-icon-size="60" stroke-dasharray="6 4">
        <g transform="translate(-5.536271186440676,-5.5362711864406755) scale(2.9613559322033898)" vector-effect="non-scaling-stroke" stroke-width="2.43" stroke-linecap="round" stroke-linejoin="round" stroke-opacity="1.0">
          <ellipse cx="12" cy="5" rx="9" ry="3" vector-effect="non-scaling-stroke" fill="none" stroke="#f1f5f9"/>
          <path d="M3 5V19A9 3 0 0 0 21 19V5" vector-effect="non-scaling-stroke" fill="none" stroke="#f1f5f9"/>
          <path d="M3 12A9 3 0 0 0 21 12" vector-effect="non-scaling-stroke" fill="none" stroke="#f1f5f9"/>
        </g>
      </g>
      <g transform="translate(-332, 0)">
        <path id="ITEM_4_TEXT_BG" d="M 24 -46 L -374 -46 L -414 -8 L -414 140 L -30 140 L 46 82 L 46 16 Z" fill="var(--panel)" fill-opacity="0.96" stroke="var(--primary-text)" stroke-opacity="0.12" stroke-width="1.5" filter="url(#svgef8f2ffa-shadow)"/>
        <rect x="-396" y="-28" width="10" height="104" rx="5" fill="var(--accent-4)" opacity="0.7"/>
        <line x1="-22" y1="10" x2="-348" y2="10" stroke="var(--accent-4)" stroke-width="3" opacity="0.3"/>
        <text id="ITEM_4_HEAD" data-bg-id="ITEM_4_TEXT_BG" text-anchor="end" font-weight="700" font-size="26" fill="var(--accent-4)" x="-22.0" y="-28.0" fill-opacity="1.0" stroke="none" style="font-size: 30px; font-family: Inter, Segoe UI, Kalam, Roboto, Helvetica, Arial, sans-serif; font-weight: 700; letter-spacing:-0.4px;" data-final-font-size="30">
          <tspan x="-22.0" dy="25.25px">Ground Impact</tspan>
        </text>
        <rect id="ITEM_4_HEAD_FRAME" x="-356" y="-28" width="334" height="34" fill="none"/>
        <text id="ITEM_4_BODY" data-bg-id="ITEM_4_TEXT_BG" text-anchor="end" font-size="18.5" fill="var(--primary-text)" x="-22.0" y="20.0" style="font-size: 23px; font-family: Inter, Segoe UI, Kalam, Roboto, Helvetica, Arial, sans-serif; font-weight: 400;" data-final-font-size="23">
          <tspan x="-22.0" dy="22.22px">Debris recovered in four</tspan>
          <tspan x="-22.0" dy="26.45px">locations across western Poland</tspan>
        </text>
        <rect id="ITEM_4_BODY_FRAME" x="-374" y="20" width="352" height="72" fill="none"/>
      </g>
    </g>
    <g transform="translate(960, 860)">
      <circle cx="0" cy="0" r="18" fill="var(--panel)" stroke="var(--border)" stroke-width="4"/>
      <circle cx="0" cy="0" r="7" fill="var(--accent-5)"/>
      <line x1="0" y1="0" x2="220" y2="0" stroke="var(--accent-5)" stroke-width="16" stroke-linecap="round" opacity="0.18"/>
      <line x1="0" y1="0" x2="220" y2="0" stroke="var(--accent-5)" stroke-width="4" stroke-linecap="round"/>
      <circle cx="220" cy="0" r="60" fill="var(--accent-5)" opacity="0.14"/>
      <circle id="ITEM_5_NODE" cx="220" cy="0" r="48" fill="var(--panel)" stroke="var(--accent-5)" stroke-width="3"/>
      <circle id="ITEM_5_PAD" cx="220" cy="0" r="42" fill="var(--icon-pad-bg)" stroke="var(--primary-text)" opacity="0.94" fill-opacity="0.9" stroke-width="2"/>
      <circle id="ITEM_5_PAD_INNER" cx="220" cy="0" r="32.76" fill="var(--accent-5)" fill-opacity="0.22"/>
      <circle cx="220" cy="0" r="32" fill="none" stroke="var(--accent-5)" stroke-width="3" stroke-dasharray="6 4"/>
      <g id="ITEM_5_ICON" transform="translate(190, -30)" data-icon-size="60" stroke-dasharray="6 4">
        <g transform="translate(-7.439999999999998,-7.732500000000001) scale(2.34)">
          <path d="M4.71839 18.0233C5.11525 17.458 5.8952 17.3215 6.46045 17.7184L18.5318 26.1936L17.0946 28.2406L5.02328 19.7653C4.45803 19.3685 4.32152 18.5885 4.71839 18.0233Z" fill="#5092FF"/>
          <path d="M18.5013 2.80347C18.8302 2.3598 19.4615 2.25982 19.9114 2.58017L21.5841 3.77124C22.034 4.09158 22.1321 4.71094 21.8032 5.15461L13.1102 16.8809C12.4436 17.7801 11.1641 17.9827 10.2523 17.3335C9.34053 16.6842 9.14176 15.429 9.80835 14.5298L18.5013 2.80347Z" fill="#636363"/>
          <path d="M18.0472 3.66594C16.8384 3.31432 15.3804 3.86071 14.5971 4.91739L11.7749 8.7243L11.9999 10.0001L10.6024 10.306L10.3989 10.5805C9.07399 12.3677 9.47824 14.8692 11.3018 16.1677C13.1254 17.4662 15.6778 17.07 17.0027 15.2828L17.1623 15.0675L16.9999 13.5001H18.3242L18.4883 13.2787C21.992 13.9302 23.8684 16.851 23.963 19.8545C24.0149 21.5041 23.5209 23.1307 22.4806 24.3899C21.4537 25.6329 19.8112 26.6185 17.3793 26.8486C16.5451 26.9276 15.9304 27.6956 16.0062 28.564C16.082 29.4325 16.8197 30.0725 17.6539 29.9935C20.7829 29.6974 23.1847 28.3804 24.7802 26.4491C26.3624 24.5339 27.069 22.1145 26.9946 19.751C26.8719 15.8564 24.6058 11.9837 20.5048 10.5586L21.2008 9.61967C21.9842 8.56299 22.0639 7.03517 21.3491 6.01708L18.0472 3.66594Z" fill="#BEBEBE"/>
          <path d="M2 29.2C2 27.4327 3.43269 26 5.2 26H26.8C28.5673 26 30 27.4327 30 29.2C30 29.6418 29.6418 30 29.2 30H2.8C2.35817 30 2 29.6418 2 29.2Z" fill="#9B9B9B"/>
          <path d="M11.7757 8.70947L18.3343 13.4746L17.1588 15.0927L10.6001 10.3275L11.7757 8.70947Z" fill="#D3D3D3"/>
        </g>
      </g>
      <g transform="translate(332, 0)">
        <path id="ITEM_5_TEXT_BG" d="M -24 -46 L 374 -46 L 414 -8 L 414 140 L 30 140 L -46 82 L -46 16 Z" fill="var(--panel)" fill-opacity="0.96" stroke="var(--primary-text)" stroke-opacity="0.12" stroke-width="1.5" filter="url(#svgef8f2ffa-shadow)"/>
        <rect x="386" y="-28" width="10" height="104" rx="5" fill="var(--accent-5)" opacity="0.7"/>
        <line x1="22" y1="10" x2="348" y2="10" stroke="var(--accent-5)" stroke-width="3" opacity="0.3"/>
        <text id="ITEM_5_HEAD" data-bg-id="ITEM_5_TEXT_BG" font-weight="700" font-size="26" fill="var(--accent-5)" x="22.0" y="-28.0" fill-opacity="1.0" stroke="none" style="font-size: 30px; font-family: Inter, Segoe UI, Kalam, Roboto, Helvetica, Arial, sans-serif; font-weight: 700; letter-spacing:-0.4px;" data-final-font-size="30">
          <tspan x="22.0" dy="25.25px">Chemical Analysis</tspan>
        </text>
        <rect id="ITEM_5_HEAD_FRAME" x="22" y="-28" width="334" height="34" fill="none"/>
        <text id="ITEM_5_BODY" data-bg-id="ITEM_5_TEXT_BG" font-size="18.5" fill="var(--primary-text)" x="22.0" y="20.0" style="font-size: 26px; font-family: Inter, Segoe UI, Kalam, Roboto, Helvetica, Arial, sans-serif; font-weight: 400;" data-final-font-size="26">
          <tspan x="22.0" dy="23.24px">Lithium atoms detected in</tspan>
          <tspan x="22.0" dy="29.90px">atmosphere 20 hours later</tspan>
        </text>
        <rect id="ITEM_5_BODY_FRAME" x="22" y="20" width="352" height="72" fill="none"/>
      </g>
    </g>
  </g>
</svg>
