<?xml version='1.0' encoding='utf-8'?>
<svg xmlns="http://www.w3.org/2000/svg" width="1920" height="1080" viewBox="0 0 1920 1080" data-theme="light">
  <style>
        @font-face {
            font-family: 'Inter';
            src: url('assets/fonts/Inter-Regular.ttf') format('truetype');
            font-weight: 400;
            font-style: normal;
            font-display: swap;
        }
        @font-face {
            font-family: 'Inter';
            src: url('assets/fonts/Inter-Bold.ttf') format('truetype');
            font-weight: 600;
            font-style: normal;
            font-display: swap;
        }
        @font-face {
            font-family: 'Inter';
            src: url('assets/fonts/Inter-Bold.ttf') format('truetype');
            font-weight: 800;
            font-style: normal;
            font-display: swap;
        }
        
:root {
    --background: #f8fafc;
    --panel: #ffffff;
    --primary-text: #0f172a;
    --muted-text: #64748b;
    --inverse-text: #ffffff;
    --border: #e2e8f0;
    --shadow-color: #000000;
    --icon-pad-bg: #1e293b;
    --art-glow: #0891b2;
    --art-glow-opacity: 0.10;
    --art-sheen: #ffffff;
    --art-sheen-opacity: 0.34;
    --art-shadow: #0f172a;
    --art-shadow-opacity: 0.14;
    --art-muted-line: #94a3b8;
    --art-panel-tint: #f1f5f9;
    --font-family: 'Inter', 'Segoe UI', 'Kalam', Roboto, Helvetica, Arial, sans-serif;
    --radius-xl: 16px;
    --font-family-headline: 'Inter', 'Segoe UI', 'Kalam', Roboto, Helvetica, Arial, sans-serif;
    --font-family-body: 'Inter', 'Segoe UI', 'Kalam', Roboto, Helvetica, Arial, sans-serif;
    --font-heading: 'Inter', 'Segoe UI', 'Kalam', Roboto, Helvetica, Arial, sans-serif;
    --font-body: 'Inter', 'Segoe UI', 'Kalam', Roboto, Helvetica, Arial, sans-serif;
    --font-size-h1: 56px;
    --font-size-h2: 40px;
    --font-size-h3: 28px;
    --font-size-body: 24px;
    --font-size-caption: 18px;
    --secondary-text: var(--muted-text);
    --panel-border: var(--border);
    --font-weight-normal: 400;
    --font-weight-medium: 500;
    --font-weight-semibold: 600;
    --font-weight-bold: 700;
    --spacing-gutter-pct: 0.07;
    --spacing-top-pct: 0.15;
    --spacing-bottom-pct: 0.07;
    --spacing-title-y-pct: 0.055;
    --accent-1: #0891b2;
    --accent-2: #0284c7;
    --accent-3: #2563eb;
    --accent-4: #4f46e5;
    --accent-5: #7c3aed;
    --accent-6: #0d9488;
}
:root[data-theme="dark"] {
    --background: #0f172a;
    --panel: #1e293b;
    --primary-text: #f1f5f9;
    --muted-text: #94a3b8;
    --inverse-text: #0f172a;
    --border: #334155;
    --shadow-color: #000000;
    --icon-pad-bg: #1e293b;
    --art-glow: #7dd3fc;
    --art-glow-opacity: 0.18;
    --art-sheen: #ffffff;
    --art-sheen-opacity: 0.18;
    --art-shadow: #000000;
    --art-shadow-opacity: 0.28;
    --art-muted-line: #64748b;
    --art-panel-tint: #1e293b;
    --accent-1: #22d3ee;
    --accent-2: #38bdf8;
    --accent-3: #60a5fa;
    --accent-4: #818cf8;
    --accent-5: #a78bfa;
    --accent-6: #2dd4bf;
}
:root[data-theme="light"] {
    --background: #f8fafc;
    --panel: #ffffff;
    --primary-text: #0f172a;
    --muted-text: #64748b;
    --inverse-text: #ffffff;
    --border: #e2e8f0;
    --shadow-color: #000000;
    --icon-pad-bg: #1e293b;
    --art-glow: #0891b2;
    --art-glow-opacity: 0.10;
    --art-sheen: #ffffff;
    --art-sheen-opacity: 0.34;
    --art-shadow: #0f172a;
    --art-shadow-opacity: 0.14;
    --art-muted-line: #94a3b8;
    --art-panel-tint: #f1f5f9;
    --accent-1: #0891b2;
    --accent-2: #0284c7;
    --accent-3: #2563eb;
    --accent-4: #4f46e5;
    --accent-5: #7c3aed;
    --accent-6: #0d9488;
}</style>
  <rect x="0" y="0" width="1.92E+3" height="1.08E+3" fill="#252a34" stroke="none" id="programmatic_background"/>
  <line id="HEADER_DECOR" x1="960.0" x2="1080.0" y1="85.0" y2="85.0" stroke="var(--accent-1)" stroke-width="6" stroke-linecap="round"/>
  <defs>
    <pattern id="svg11dcfff1-napkin-hatch" patternUnits="userSpaceOnUse" width="12" height="12">
      <path d="M -3 12 L 12 -3 M 0 15 L 15 0" fill="none" stroke="var(--primary-text)" stroke-width="1" stroke-opacity="0.05"/>
    </pattern>
    <filter id="svg11dcfff1-shadow" x="-30%" y="-30%" width="160%" height="160%">
      <feDropShadow dx="0" dy="2" stdDeviation="3" flood-color="#000000" flood-opacity="0.08"/>
      <feDropShadow dx="0" dy="6" stdDeviation="10" flood-color="#000000" flood-opacity="0.12"/>
    </filter>
    <marker id="svg11dcfff1-arrowhead" markerWidth="10" markerHeight="10" refX="9" refY="5" orient="auto">
      <path d="M 0 0 L 10 5 L 0 10 Z" fill="var(--accent-1)"/>
    </marker>
    <filter id="svg11dcfff1-text-glow" x="-20%" y="-20%" width="140%" height="140%">
      <feDropShadow dx="0" dy="0" stdDeviation="2" flood-color="#000000" flood-opacity="0.4"/>
    </filter>
    <radialGradient id="svg11dcfff1-universal-edge-vignette" cx="50%" cy="50%" r="72%">
      <stop offset="0%" stop-color="var(--background)" stop-opacity="0"/>
      <stop offset="72%" stop-color="var(--background)" stop-opacity="0.12"/>
      <stop offset="100%" stop-color="var(--primary-text)" stop-opacity="0.08"/>
    </radialGradient>
    <linearGradient id="svg11dcfff1-universal-surface-sheen" x1="0%" y1="0%" x2="100%" y2="100%">
      <stop offset="0%" stop-color="var(--art-sheen)" stop-opacity="var(--art-sheen-opacity)"/>
      <stop offset="46%" stop-color="var(--art-sheen)" stop-opacity="0.035"/>
      <stop offset="100%" stop-color="var(--art-panel-tint)" stop-opacity="0.14"/>
    </linearGradient>
    <radialGradient id="svg11dcfff1-universal-icon-aura" cx="50%" cy="42%" r="64%">
      <stop offset="0%" stop-color="var(--art-glow)" stop-opacity="var(--art-glow-opacity)"/>
      <stop offset="100%" stop-color="var(--background)" stop-opacity="0"/>
    </radialGradient>
  </defs>
  <rect width="100%" height="100%" fill="var(--background)" id="CANVAS_BG"/>
  <rect width="100%" height="100%" fill="url(#svg11dcfff1-napkin-hatch)"/>
  <rect id="UNIVERSAL_EDGE_VIGNETTE" width="100%" height="100%" fill="url(#svg11dcfff1-universal-edge-vignette)" opacity="0.62"/>
  <text id="TITLE" x="960.0" y="59" font-size="48" font-weight="700" fill="#0f172a" text-anchor="middle" style="font-size: 60px; font-family: Inter, Segoe UI, Kalam, Roboto, Helvetica, Arial, sans-serif; font-weight: 700; letter-spacing:-1.2px;" data-final-font-size="60">
    <tspan x="960.0" dy="68.00px">Greifswald 1990 Witness Descriptions</tspan>
  </text>
  <rect id="TITLE_FRAME" x="134" y="25" width="1652" height="70" fill="none"/>
  <g id="DIAGRAM_MAIN">
    <rect id="ITEM_1_BG" x="31" y="170" width="442" height="400" rx="20" fill="var(--accent-5)" stroke="var(--accent-1)" stroke-width="2" filter="url(#svg11dcfff1-shadow)" fill-opacity="1.0"/>
    <rect x="31" y="186" width="442" height="12" fill="var(--accent-1)"/>
    <rect id="ITEM_1_HEAD_FRAME" x="41.0" y="288" width="422.0" height="98" fill="none"/>
    <rect id="ITEM_1_BODY_FRAME" x="41.0" y="382" width="422.0" height="178" fill="none"/>
    <circle id="ITEM_1_PAD" cx="252" cy="231" r="55" fill="var(--icon-pad-bg)" stroke="var(--primary-text)" opacity="0.9" fill-opacity="0.9" stroke-width="2"/>
    <circle cx="252" cy="231" r="44" fill="none" stroke="var(--accent-1)" stroke-width="3" stroke-dasharray="6 4"/>
    <circle id="ITEM_1_BADGE" cx="252" cy="231" r="43" fill="var(--accent-1)" stroke="var(--background)" stroke-width="4" fill-opacity="0.35" opacity="0.85" stroke-opacity="0.75"/>
    <g id="ITEM_1_ICON" transform="translate(219, 198)" data-icon-size="66">
      <g transform="translate(-17.844444444444434,-17.844444444444434) scale(4.2370370370370365)" vector-effect="non-scaling-stroke" stroke-width="2.50" stroke-linecap="round" stroke-linejoin="round" stroke-opacity="1.0">
        <path d="M3 12c0 1.657 4.03 3 9 3s9 -1.343 9 -3" vector-effect="non-scaling-stroke" fill="none" stroke="#ffffff"/>
        <path d="M12 12m-9 0a9 9 0 1 0 18 0a9 9 0 1 0 -18 0" vector-effect="non-scaling-stroke" fill="none" stroke="#ffffff"/>
      </g>
    </g>
    <text id="ITEM_1_HEAD" x="41.0" y="288.0" font-weight="700" font-size="18" fill="var(--inverse-text)" text-anchor="start" data-bg-id="ITEM_1_BG" fill-opacity="1.0" style="font-size: 30px; font-family: Inter, Segoe UI, Kalam, Roboto, Helvetica, Arial, sans-serif; font-weight: 700; letter-spacing:-0.4px;" data-final-font-size="30">
      <tspan x="41.0" dy="57.25px">Luminous Spheres</tspan>
    </text>
    <text id="ITEM_1_BODY" x="41.0" y="382.0" font-size="14" fill="var(--inverse-text)" text-anchor="start" data-bg-id="ITEM_1_BG" style="font-size: 26px; font-family: Inter, Segoe UI, Kalam, Roboto, Helvetica, Arial, sans-serif; font-weight: 400;" data-final-font-size="26">
      <tspan x="41.0" dy="44.44px">Witnesses saw bright round ball-</tspan>
      <tspan x="41.0" dy="29.90px">like formations in sky</tspan>
    </text>
    <rect id="ITEM_2_BG" x="503" y="170" width="442" height="400" rx="20" fill="var(--accent-6)" stroke="var(--accent-2)" stroke-width="2" filter="url(#svg11dcfff1-shadow)" fill-opacity="1.0"/>
    <rect x="503" y="186" width="442" height="12" fill="var(--accent-2)"/>
    <rect id="ITEM_2_HEAD_FRAME" x="513.0" y="288" width="422.0" height="98" fill="none"/>
    <rect id="ITEM_2_BODY_FRAME" x="513.0" y="382" width="422.0" height="178" fill="none"/>
    <circle id="ITEM_2_PAD" cx="724" cy="231" r="55" fill="var(--icon-pad-bg)" stroke="var(--primary-text)" opacity="0.9" fill-opacity="0.9" stroke-width="2"/>
    <circle cx="724" cy="231" r="44" fill="none" stroke="var(--accent-2)" stroke-width="3" stroke-dasharray="6 4"/>
    <circle id="ITEM_2_BADGE" cx="724" cy="231" r="43" fill="var(--accent-2)" stroke="var(--background)" stroke-width="4" fill-opacity="0.35" opacity="0.85" stroke-opacity="0.75"/>
    <g id="ITEM_2_ICON" transform="translate(691, 198)" data-icon-size="66">
      <g transform="translate(-19.799999999999997,-19.799999999999997) scale(0.4125)" vector-effect="non-scaling-stroke" stroke-width="2.50" stroke-linecap="round" stroke-linejoin="round" stroke-opacity="1.0">
        <circle cx="128" cy="180" r="12" vector-effect="non-scaling-stroke" fill="none" stroke="#ffffff"/>
        <path d="M128,144v-8c17.67,0,32-12.54,32-28s-14.33-28-32-28S96,92.54,96,108v4" fill="none" stroke="#ffffff" vector-effect="non-scaling-stroke"/>
        <circle cx="128" cy="128" r="96" fill="none" stroke="#ffffff" vector-effect="non-scaling-stroke"/>
      </g>
    </g>
    <text id="ITEM_2_HEAD" x="513.0" y="288.0" font-weight="700" font-size="18" fill="var(--primary-text)" text-anchor="start" data-bg-id="ITEM_2_BG" fill-opacity="1.0" style="font-size: 30px; font-family: Inter, Segoe UI, Kalam, Roboto, Helvetica, Arial, sans-serif; font-weight: 700; letter-spacing:-0.4px;" data-final-font-size="30">
      <tspan x="513.0" dy="57.25px">head</tspan>
    </text>
    <text id="ITEM_2_BODY" x="513.0" y="382.0" font-size="14" fill="var(--primary-text)" text-anchor="start" data-bg-id="ITEM_2_BG"/>
    <rect id="ITEM_3_BG" x="975" y="170" width="442" height="400" rx="20" fill="var(--accent-1)" stroke="var(--accent-3)" stroke-width="2" filter="url(#svg11dcfff1-shadow)" fill-opacity="1.0"/>
    <rect x="975" y="186" width="442" height="12" fill="var(--accent-3)"/>
    <rect id="ITEM_3_HEAD_FRAME" x="985.0" y="288" width="422.0" height="98" fill="none"/>
    <rect id="ITEM_3_BODY_FRAME" x="985.0" y="382" width="422.0" height="178" fill="none"/>
    <circle id="ITEM_3_PAD" cx="1196" cy="231" r="55" fill="var(--icon-pad-bg)" stroke="var(--primary-text)" opacity="0.9" fill-opacity="0.9" stroke-width="2"/>
    <circle cx="1196" cy="231" r="44" fill="none" stroke="var(--accent-3)" stroke-width="3" stroke-dasharray="6 4"/>
    <circle id="ITEM_3_BADGE" cx="1196" cy="231" r="43" fill="var(--accent-3)" stroke="var(--background)" stroke-width="4" fill-opacity="0.35" opacity="0.85" stroke-opacity="0.75"/>
    <g id="ITEM_3_ICON" transform="translate(1163, 198)" data-icon-size="66">
      <g transform="translate(-19.799999999999997,-19.799999999999997) scale(0.4125)" vector-effect="non-scaling-stroke" stroke-width="2.50" stroke-linecap="round" stroke-linejoin="round" stroke-opacity="1.0">
        <circle cx="128" cy="180" r="12" vector-effect="non-scaling-stroke" fill="none" stroke="#ffffff"/>
        <path d="M128,144v-8c17.67,0,32-12.54,32-28s-14.33-28-32-28S96,92.54,96,108v4" fill="none" stroke="#ffffff" vector-effect="non-scaling-stroke"/>
        <circle cx="128" cy="128" r="96" fill="none" stroke="#ffffff" vector-effect="non-scaling-stroke"/>
      </g>
    </g>
    <text id="ITEM_3_HEAD" x="985.0" y="288.0" font-weight="700" font-size="18" fill="var(--primary-text)" text-anchor="start" data-bg-id="ITEM_3_BG" fill-opacity="1.0" style="font-size: 30px; font-family: Inter, Segoe UI, Kalam, Roboto, Helvetica, Arial, sans-serif; font-weight: 700; letter-spacing:-0.4px;" data-final-font-size="30">
      <tspan x="985.0" dy="57.25px">body</tspan>
    </text>
    <text id="ITEM_3_BODY" x="985.0" y="382.0" font-size="14" fill="var(--primary-text)" text-anchor="start" data-bg-id="ITEM_3_BG"/>
    <rect id="ITEM_4_BG" x="1447" y="170" width="442" height="400" rx="20" fill="var(--accent-2)" stroke="var(--accent-4)" stroke-width="2" filter="url(#svg11dcfff1-shadow)" fill-opacity="1.0"/>
    <rect x="1447" y="186" width="442" height="12" fill="var(--accent-4)"/>
    <rect id="ITEM_4_HEAD_FRAME" x="1457.0" y="288" width="422.0" height="98" fill="none"/>
    <rect id="ITEM_4_BODY_FRAME" x="1457.0" y="382" width="422.0" height="178" fill="none"/>
    <circle id="ITEM_4_PAD" cx="1668" cy="231" r="55" fill="var(--icon-pad-bg)" stroke="var(--primary-text)" opacity="0.9" fill-opacity="0.9" stroke-width="2"/>
    <circle cx="1668" cy="231" r="44" fill="none" stroke="var(--accent-4)" stroke-width="3" stroke-dasharray="6 4"/>
    <circle id="ITEM_4_BADGE" cx="1668" cy="231" r="43" fill="var(--accent-4)" stroke="var(--background)" stroke-width="4" fill-opacity="0.35" opacity="0.85" stroke-opacity="0.75"/>
    <g id="ITEM_4_ICON" transform="translate(1635, 198)" data-icon-size="66">
      <g transform="translate(-19.799999999999997,-19.799999999999997) scale(0.4125)" vector-effect="non-scaling-stroke" stroke-width="2.50" stroke-linecap="round" stroke-linejoin="round" stroke-opacity="1.0">
        <circle cx="128" cy="180" r="12" vector-effect="non-scaling-stroke" fill="none" stroke="#ffffff"/>
        <path d="M128,144v-8c17.67,0,32-12.54,32-28s-14.33-28-32-28S96,92.54,96,108v4" fill="none" stroke="#ffffff" vector-effect="non-scaling-stroke"/>
        <circle cx="128" cy="128" r="96" fill="none" stroke="#ffffff" vector-effect="non-scaling-stroke"/>
      </g>
    </g>
    <text id="ITEM_4_HEAD" x="1457.0" y="288.0" font-weight="700" font-size="18" fill="var(--primary-text)" text-anchor="start" data-bg-id="ITEM_4_BG" fill-opacity="1.0" style="font-size: 30px; font-family: Inter, Segoe UI, Kalam, Roboto, Helvetica, Arial, sans-serif; font-weight: 700; letter-spacing:-0.4px;" data-final-font-size="30">
      <tspan x="1457.0" dy="57.25px">context</tspan>
    </text>
    <text id="ITEM_4_BODY" x="1457.0" y="382.0" font-size="14" fill="var(--primary-text)" text-anchor="start" data-bg-id="ITEM_4_BG"/>
    <rect id="ITEM_5_BG" x="31" y="600" width="442" height="400" rx="20" fill="var(--accent-3)" stroke="var(--accent-5)" stroke-width="2" filter="url(#svg11dcfff1-shadow)" fill-opacity="1.0"/>
    <rect x="31" y="616" width="442" height="12" fill="var(--accent-5)"/>
    <rect id="ITEM_5_HEAD_FRAME" x="41.0" y="718" width="422.0" height="98" fill="none"/>
    <rect id="ITEM_5_BODY_FRAME" x="41.0" y="812" width="422.0" height="178" fill="none"/>
    <circle id="ITEM_5_PAD" cx="252" cy="661" r="55" fill="var(--icon-pad-bg)" stroke="var(--primary-text)" opacity="0.9" fill-opacity="0.9" stroke-width="2"/>
    <circle cx="252" cy="661" r="44" fill="none" stroke="var(--accent-5)" stroke-width="3" stroke-dasharray="6 4"/>
    <circle id="ITEM_5_BADGE" cx="252" cy="661" r="43" fill="var(--accent-5)" stroke="var(--background)" stroke-width="4" fill-opacity="0.35" opacity="0.85" stroke-opacity="0.75"/>
    <g id="ITEM_5_ICON" transform="translate(219, 628)" data-icon-size="66">
      <g transform="translate(-19.799999999999997,-19.799999999999997) scale(0.4125)" vector-effect="non-scaling-stroke" stroke-width="2.50" stroke-linecap="round" stroke-linejoin="round" stroke-opacity="1.0">
        <circle cx="128" cy="180" r="12" vector-effect="non-scaling-stroke" fill="none" stroke="#ffffff"/>
        <path d="M128,144v-8c17.67,0,32-12.54,32-28s-14.33-28-32-28S96,92.54,96,108v4" fill="none" stroke="#ffffff" vector-effect="non-scaling-stroke"/>
        <circle cx="128" cy="128" r="96" fill="none" stroke="#ffffff" vector-effect="non-scaling-stroke"/>
      </g>
    </g>
    <text id="ITEM_5_HEAD" x="41.0" y="718.0" font-weight="700" font-size="18" fill="var(--inverse-text)" text-anchor="start" data-bg-id="ITEM_5_BG" fill-opacity="1.0" style="font-size: 15px; font-family: Inter, Segoe UI, Kalam, Roboto, Helvetica, Arial, sans-serif; font-weight: 700; letter-spacing:-0.4px;" data-final-font-size="15">
      <tspan x="41.0" dy="42.25px">icon_hint: {} - Wait, I need to ensure 4 items. Let me re-</tspan>
      <tspan x="41.0" dy="18.75px">evaluate the source for distinct witness descriptions</tspan>
    </text>
    <text id="ITEM_5_BODY" x="41.0" y="812.0" font-size="14" fill="var(--primary-text)" text-anchor="start" data-bg-id="ITEM_5_BG"/>
    <rect id="ITEM_6_BG" x="503" y="600" width="442" height="400" rx="20" fill="var(--accent-4)" stroke="var(--accent-6)" stroke-width="2" filter="url(#svg11dcfff1-shadow)" fill-opacity="1.0"/>
    <rect x="503" y="616" width="442" height="12" fill="var(--accent-6)"/>
    <rect id="ITEM_6_HEAD_FRAME" x="513.0" y="718" width="422.0" height="98" fill="none"/>
    <rect id="ITEM_6_BODY_FRAME" x="513.0" y="812" width="422.0" height="178" fill="none"/>
    <circle id="ITEM_6_PAD" cx="724" cy="661" r="55" fill="var(--icon-pad-bg)" stroke="var(--primary-text)" opacity="0.9" fill-opacity="0.9" stroke-width="2"/>
    <circle cx="724" cy="661" r="44" fill="none" stroke="var(--accent-6)" stroke-width="3" stroke-dasharray="6 4"/>
    <circle id="ITEM_6_BADGE" cx="724" cy="661" r="43" fill="var(--accent-6)" stroke="var(--background)" stroke-width="4" fill-opacity="0.35" opacity="0.85" stroke-opacity="0.75"/>
    <g id="ITEM_6_ICON" transform="translate(691, 628)" data-icon-size="66">
      <g transform="translate(-15.594690265486719,-17.4929203539823) scale(4.0495575221238935)" vector-effect="non-scaling-stroke" stroke-width="2.50" stroke-linecap="round" stroke-linejoin="round" stroke-opacity="1.0">
        <path d="M12 9v13" vector-effect="non-scaling-stroke" fill="none" stroke="#ffffff"/>
        <path d="M19 17.17l-5.98 4.485a1.7 1.7 0 0 1 -2.04 0l-5.98 -4.485a2.5 2.5 0 0 1 -1 -2v-11.17a1 1 0 0 1 1 -1h14a1 1 0 0 1 1 1v11.17a2.5 2.5 0 0 1 -1 2z" vector-effect="non-scaling-stroke" fill="none" stroke="#ffffff"/>
        <path d="M4.3 3.3l6.655 5.186a1.7 1.7 0 0 0 2.09 0l6.655 -5.186" vector-effect="non-scaling-stroke" fill="none" stroke="#ffffff"/>
      </g>
    </g>
    <text id="ITEM_6_HEAD" x="513.0" y="718.0" font-weight="700" font-size="18" fill="var(--inverse-text)" text-anchor="start" data-bg-id="ITEM_6_BG" fill-opacity="1.0" style="font-size: 30px; font-family: Inter, Segoe UI, Kalam, Roboto, Helvetica, Arial, sans-serif; font-weight: 700; letter-spacing:-0.4px;" data-final-font-size="30">
      <tspan x="513.0" dy="57.25px">Color Variations</tspan>
    </text>
    <text id="ITEM_6_BODY" x="513.0" y="812.0" font-size="14" fill="var(--inverse-text)" text-anchor="start" data-bg-id="ITEM_6_BG" style="font-size: 26px; font-family: Inter, Segoe UI, Kalam, Roboto, Helvetica, Arial, sans-serif; font-weight: 400;" data-final-font-size="26">
      <tspan x="513.0" dy="44.44px">Lights appeared in reddish orange</tspan>
      <tspan x="513.0" dy="29.90px">or white-orange hues</tspan>
    </text>
    <rect id="ITEM_7_BG" x="975" y="600" width="442" height="400" rx="20" fill="var(--accent-5)" stroke="var(--accent-7)" stroke-width="2" filter="url(#svg11dcfff1-shadow)" fill-opacity="1.0"/>
    <rect x="975" y="616" width="442" height="12" fill="var(--accent-7)"/>
    <rect id="ITEM_7_HEAD_FRAME" x="985.0" y="718" width="422.0" height="98" fill="none"/>
    <rect id="ITEM_7_BODY_FRAME" x="985.0" y="812" width="422.0" height="178" fill="none"/>
    <circle id="ITEM_7_PAD" cx="1196" cy="661" r="55" fill="var(--icon-pad-bg)" stroke="var(--primary-text)" opacity="0.9" fill-opacity="0.9" stroke-width="2"/>
    <circle cx="1196" cy="661" r="44" fill="none" stroke="var(--accent-7)" stroke-width="3" stroke-dasharray="6 4"/>
    <circle id="ITEM_7_BADGE" cx="1196" cy="661" r="43" fill="var(--accent-7)" stroke="var(--background)" stroke-width="4" fill-opacity="0.35" opacity="0.85" stroke-opacity="0.75"/>
    <g id="ITEM_7_ICON" transform="translate(1163, 628)" data-icon-size="66">
      <g transform="translate(-14.496428571428568,-16.028571428571425) scale(3.064285714285714)" vector-effect="non-scaling-stroke" fill="#ffffff" fill-opacity="1.0" stroke="none">
        <path fill="#ffffff" d="M13 30a11 11 0 0 1 0-22a1 1 0 0 1 1 1v9h9a1 1 0 0 1 1 1a11 11 0 0 1-11 11m-1-19.94A9 9 0 1 0 21.94 20H14a2 2 0 0 1-2-2Z" vector-effect="non-scaling-stroke" stroke="none"/>
        <path fill="#ffffff" d="M28 14h-9a2 2 0 0 1-2-2V3a1 1 0 0 1 1-1a11 11 0 0 1 11 11a1 1 0 0 1-1 1m-9-2h7.94A9 9 0 0 0 19 4.06Z" vector-effect="non-scaling-stroke" stroke="none"/>
      </g>
    </g>
    <text id="ITEM_7_HEAD" x="985.0" y="718.0" font-weight="700" font-size="18" fill="var(--inverse-text)" text-anchor="start" data-bg-id="ITEM_7_BG" fill-opacity="1.0" style="font-size: 30px; font-family: Inter, Segoe UI, Kalam, Roboto, Helvetica, Arial, sans-serif; font-weight: 700; letter-spacing:-0.4px;" data-final-font-size="30">
      <tspan x="985.0" dy="57.25px">Spatial Formations</tspan>
    </text>
    <text id="ITEM_7_BODY" x="985.0" y="812.0" font-size="14" fill="var(--inverse-text)" text-anchor="start" data-bg-id="ITEM_7_BG" style="font-size: 26px; font-family: Inter, Segoe UI, Kalam, Roboto, Helvetica, Arial, sans-serif; font-weight: 400;" data-final-font-size="26">
      <tspan x="985.0" dy="44.44px">Objects were arranged in rings</tspan>
      <tspan x="985.0" dy="29.90px">or Y-like shapes</tspan>
    </text>
    <rect id="ITEM_8_BG" x="1447" y="600" width="442" height="400" rx="20" fill="var(--accent-6)" stroke="var(--accent-8)" stroke-width="2" filter="url(#svg11dcfff1-shadow)" fill-opacity="1.0"/>
    <rect x="1447" y="616" width="442" height="12" fill="var(--accent-8)"/>
    <rect id="ITEM_8_HEAD_FRAME" x="1457.0" y="718" width="422.0" height="98" fill="none"/>
    <rect id="ITEM_8_BODY_FRAME" x="1457.0" y="812" width="422.0" height="178" fill="none"/>
    <circle id="ITEM_8_PAD" cx="1668" cy="661" r="55" fill="var(--icon-pad-bg)" stroke="var(--primary-text)" opacity="0.9" fill-opacity="0.9" stroke-width="2"/>
    <circle cx="1668" cy="661" r="44" fill="none" stroke="var(--accent-8)" stroke-width="3" stroke-dasharray="6 4"/>
    <circle id="ITEM_8_BADGE" cx="1668" cy="661" r="43" fill="var(--accent-8)" stroke="var(--background)" stroke-width="4" fill-opacity="0.35" opacity="0.85" stroke-opacity="0.75"/>
    <g id="ITEM_8_ICON" transform="translate(1635, 628)" data-icon-size="66">
      <g transform="translate(-16.028571428571425,-16.028571428571425) scale(3.064285714285714)">
        <path fill-rule="evenodd" clip-rule="evenodd" d="M13.0009 5C13.0009 5.8908 13.3868 6.68944 14.0009 7.23832V10H10.5009C9.67089 10 9.00089 10.67 9.00089 11.5C9.00089 12.33 9.67089 13 10.5009 13H14.0009V26.7763C11.3397 26.1708 9.12469 24.3837 7.94087 22L7.98088 21.9999C8.85088 21.9999 9.32088 20.9799 8.75088 20.3199L5.36088 16.3599C4.79088 15.6899 3.70088 16.0099 3.58088 16.8799L3.01088 20.8399C2.92088 21.4499 3.40088 21.9999 4.02088 21.9999L4.69087 22C6.33087 26.66 10.7709 30 16.0009 30C21.2309 30 25.6709 26.66 27.3109 22L27.9809 21.9999C28.6009 21.9999 29.0809 21.4499 28.9909 20.8399L28.4209 16.8799C28.3009 16.0099 27.2109 15.6899 26.6409 16.3599L23.2509 20.3199C22.6809 20.9799 23.1509 21.9999 24.0209 21.9999H24.0609C22.8771 24.3836 20.6621 26.1708 18.0009 26.7763V13H21.5009C22.3309 13 23.0009 12.33 23.0009 11.5C23.0009 10.67 22.3309 10 21.5009 10H18.0009V7.23832C18.615 6.68944 19.0009 5.8908 19.0009 5C19.0009 3.34 17.6609 2 16.0009 2C14.3409 2 13.0009 3.34 13.0009 5ZM15.0009 5C15.0009 4.45 15.4509 4 16.0009 4C16.5509 4 17.0009 4.45 17.0009 5C17.0009 5.55 16.5509 6 16.0009 6C15.4509 6 15.0009 5.55 15.0009 5Z" fill="#00A6ED"/>
      </g>
    </g>
    <text id="ITEM_8_HEAD" x="1457.0" y="718.0" font-weight="700" font-size="18" fill="var(--primary-text)" text-anchor="start" data-bg-id="ITEM_8_BG" fill-opacity="1.0" style="font-size: 30px; font-family: Inter, Segoe UI, Kalam, Roboto, Helvetica, Arial, sans-serif; font-weight: 700; letter-spacing:-0.4px;" data-final-font-size="30">
      <tspan x="1457.0" dy="57.25px">Stationary Behavior</tspan>
    </text>
    <text id="ITEM_8_BODY" x="1457.0" y="812.0" font-size="14" fill="var(--primary-text)" text-anchor="start" data-bg-id="ITEM_8_BG" style="font-size: 26px; font-family: Inter, Segoe UI, Kalam, Roboto, Helvetica, Arial, sans-serif; font-weight: 400;" data-final-font-size="26">
      <tspan x="1457.0" dy="44.44px">Lights hung in sky rather</tspan>
      <tspan x="1457.0" dy="29.90px">than moving rapidly</tspan>
    </text>
  </g>
</svg>
