<?xml version='1.0' encoding='utf-8'?>
<svg xmlns="http://www.w3.org/2000/svg" width="1920" height="1080" viewBox="0 0 1920 1080" data-theme="light">
  <style>
        @font-face {
            font-family: 'Inter';
            src: url('assets/fonts/Inter-Regular.ttf') format('truetype');
            font-weight: 400;
            font-style: normal;
            font-display: swap;
        }
        @font-face {
            font-family: 'Inter';
            src: url('assets/fonts/Inter-Bold.ttf') format('truetype');
            font-weight: 600;
            font-style: normal;
            font-display: swap;
        }
        @font-face {
            font-family: 'Inter';
            src: url('assets/fonts/Inter-Bold.ttf') format('truetype');
            font-weight: 800;
            font-style: normal;
            font-display: swap;
        }
        
:root {
    --background: #f8fafc;
    --panel: #ffffff;
    --primary-text: #0f172a;
    --muted-text: #64748b;
    --inverse-text: #ffffff;
    --border: #e2e8f0;
    --shadow-color: #000000;
    --icon-pad-bg: #1e293b;
    --art-glow: #0891b2;
    --art-glow-opacity: 0.10;
    --art-sheen: #ffffff;
    --art-sheen-opacity: 0.34;
    --art-shadow: #0f172a;
    --art-shadow-opacity: 0.14;
    --art-muted-line: #94a3b8;
    --art-panel-tint: #f1f5f9;
    --font-family: 'Inter', 'Segoe UI', 'Kalam', Roboto, Helvetica, Arial, sans-serif;
    --radius-xl: 16px;
    --font-family-headline: 'Inter', 'Segoe UI', 'Kalam', Roboto, Helvetica, Arial, sans-serif;
    --font-family-body: 'Inter', 'Segoe UI', 'Kalam', Roboto, Helvetica, Arial, sans-serif;
    --font-heading: 'Inter', 'Segoe UI', 'Kalam', Roboto, Helvetica, Arial, sans-serif;
    --font-body: 'Inter', 'Segoe UI', 'Kalam', Roboto, Helvetica, Arial, sans-serif;
    --font-size-h1: 56px;
    --font-size-h2: 40px;
    --font-size-h3: 28px;
    --font-size-body: 24px;
    --font-size-caption: 18px;
    --secondary-text: var(--muted-text);
    --panel-border: var(--border);
    --font-weight-normal: 400;
    --font-weight-medium: 500;
    --font-weight-semibold: 600;
    --font-weight-bold: 700;
    --spacing-gutter-pct: 0.07;
    --spacing-top-pct: 0.15;
    --spacing-bottom-pct: 0.07;
    --spacing-title-y-pct: 0.055;
    --accent-1: #0891b2;
    --accent-2: #0284c7;
    --accent-3: #2563eb;
    --accent-4: #4f46e5;
    --accent-5: #7c3aed;
    --accent-6: #0d9488;
}
:root[data-theme="dark"] {
    --background: #0f172a;
    --panel: #1e293b;
    --primary-text: #f1f5f9;
    --muted-text: #94a3b8;
    --inverse-text: #0f172a;
    --border: #334155;
    --shadow-color: #000000;
    --icon-pad-bg: #1e293b;
    --art-glow: #7dd3fc;
    --art-glow-opacity: 0.18;
    --art-sheen: #ffffff;
    --art-sheen-opacity: 0.18;
    --art-shadow: #000000;
    --art-shadow-opacity: 0.28;
    --art-muted-line: #64748b;
    --art-panel-tint: #1e293b;
    --accent-1: #22d3ee;
    --accent-2: #38bdf8;
    --accent-3: #60a5fa;
    --accent-4: #818cf8;
    --accent-5: #a78bfa;
    --accent-6: #2dd4bf;
}
:root[data-theme="light"] {
    --background: #f8fafc;
    --panel: #ffffff;
    --primary-text: #0f172a;
    --muted-text: #64748b;
    --inverse-text: #ffffff;
    --border: #e2e8f0;
    --shadow-color: #000000;
    --icon-pad-bg: #1e293b;
    --art-glow: #0891b2;
    --art-glow-opacity: 0.10;
    --art-sheen: #ffffff;
    --art-sheen-opacity: 0.34;
    --art-shadow: #0f172a;
    --art-shadow-opacity: 0.14;
    --art-muted-line: #94a3b8;
    --art-panel-tint: #f1f5f9;
    --accent-1: #0891b2;
    --accent-2: #0284c7;
    --accent-3: #2563eb;
    --accent-4: #4f46e5;
    --accent-5: #7c3aed;
    --accent-6: #0d9488;
}</style>
  <rect x="0" y="0" width="1.92E+3" height="1.08E+3" fill="#252a34" stroke="none" id="programmatic_background"/>
  <line id="HEADER_DECOR" x1="960.0" x2="1080.0" y1="115.0" y2="115.0" stroke="var(--accent-1)" stroke-width="6" stroke-linecap="round"/>
  <defs>
    <pattern id="svg54855041-napkin-hatch" patternUnits="userSpaceOnUse" width="12" height="12">
      <path d="M -3 12 L 12 -3 M 0 15 L 15 0" fill="none" stroke="var(--primary-text)" stroke-width="1" stroke-opacity="0.05"/>
    </pattern>
    <radialGradient id="svg54855041-universal-edge-vignette" cx="50%" cy="50%" r="72%">
      <stop offset="0%" stop-color="var(--background)" stop-opacity="0"/>
      <stop offset="72%" stop-color="var(--background)" stop-opacity="0.12"/>
      <stop offset="100%" stop-color="var(--primary-text)" stop-opacity="0.08"/>
    </radialGradient>
    <linearGradient id="svg54855041-universal-surface-sheen" x1="0%" y1="0%" x2="100%" y2="100%">
      <stop offset="0%" stop-color="var(--art-sheen)" stop-opacity="var(--art-sheen-opacity)"/>
      <stop offset="46%" stop-color="var(--art-sheen)" stop-opacity="0.035"/>
      <stop offset="100%" stop-color="var(--art-panel-tint)" stop-opacity="0.14"/>
    </linearGradient>
    <radialGradient id="svg54855041-universal-icon-aura" cx="50%" cy="42%" r="64%">
      <stop offset="0%" stop-color="var(--art-glow)" stop-opacity="var(--art-glow-opacity)"/>
      <stop offset="100%" stop-color="var(--background)" stop-opacity="0"/>
    </radialGradient>
    <radialGradient id="svg54855041-gem-inner-glow" cx="50%" cy="44%" r="52%">
      <stop offset="0%" stop-color="var(--inverse-text)" stop-opacity="0.22"/>
      <stop offset="100%" stop-color="var(--background)" stop-opacity="0"/>
    </radialGradient>
    <filter id="svg54855041-text-glow" x="-20%" y="-20%" width="140%" height="140%">
      <feDropShadow dx="0" dy="0" stdDeviation="2" flood-color="#000000" flood-opacity="0.4"/>
    </filter>
    <filter id="svg54855041-shadow" x="-30%" y="-30%" width="160%" height="160%">
      <feDropShadow dx="0" dy="2" stdDeviation="3" flood-color="#000000" flood-opacity="0.08"/>
      <feDropShadow dx="0" dy="6" stdDeviation="10" flood-color="#000000" flood-opacity="0.12"/>
    </filter>
    <marker id="svg54855041-arrowhead" markerWidth="10" markerHeight="7" refX="9" refY="3.5" orient="auto" markerUnits="strokeWidth">
      <polygon points="0 0, 10 3.5, 0 7" fill="var(--muted-text)" opacity="0.6"/>
    </marker>
  </defs>
  <rect width="100%" height="100%" fill="var(--background)" id="CANVAS_BG"/>
  <rect width="100%" height="100%" fill="url(#svg54855041-napkin-hatch)"/>
  <rect id="UNIVERSAL_EDGE_VIGNETTE" width="100%" height="100%" fill="url(#svg54855041-universal-edge-vignette)" opacity="0.62"/>
  <text id="TITLE" x="960.0" y="59" font-size="64" font-weight="700" fill="#0f172a" style="font-size: 60px; font-family: Inter, Segoe UI, Kalam, Roboto, Helvetica, Arial, sans-serif; font-weight: 700; letter-spacing:-1.2px;" text-anchor="middle" data-final-font-size="60">
    <tspan x="960.0" dy="68.00px">Balloons as Deceptive UFOs</tspan>
  </text>
  <rect id="TITLE_FRAME" x="134" y="50" width="1652" height="100" fill="none"/>
  <g transform="translate(0, 0)">
    <ellipse id="GEM_TABLE_GLOW" cx="960" cy="580" rx="300" ry="260" fill="url(#svg54855041-gem-inner-glow)" opacity="0.92"/>
    <path id="GEM_TOP_GLINT" d="M 804 358 L 960 260 L 1116 358" fill="none" stroke="var(--inverse-text)" stroke-width="3" stroke-opacity="0.18" stroke-linejoin="round"/>
    <g>
      <path id="ITEM_1_BG" d="M 960 580 L 656 481 L 960 260 Z" fill="var(--accent-3)" stroke="var(--accent-1)" stroke-width="3" fill-opacity="1.0"/>
      <path id="GEM_FACET_SHEEN_1" d="M 960 580 L 960 260" stroke="var(--inverse-text)" stroke-width="2" stroke-opacity="0.08" stroke-linecap="round"/>
      <path d="M 750 350 L 450 350" fill="none" stroke="var(--accent-1)" stroke-width="2" stroke-dasharray="5 5"/>
      <circle cx="750" cy="350" r="5" fill="var(--accent-1)"/>
      <circle cx="859.0" cy="440.0" r="64" fill="url(#svg54855041-universal-icon-aura)" opacity="0.84"/>
      <circle id="ITEM_1_PAD" cx="859.0" cy="440.0" r="46" fill="var(--icon-pad-bg)" stroke="var(--primary-text)" opacity="0.9" fill-opacity="0.9" stroke-width="2"/>
      <circle id="ITEM_1_PAD_INNER" cx="859.0" cy="440.0" r="35.88" fill="var(--accent-3)" fill-opacity="0.22"/>
      <circle cx="859.0" cy="440.0" r="36.8" fill="none" stroke="var(--accent-1)" stroke-width="3" stroke-dasharray="6 4"/>
      <g id="ITEM_1_ICON" transform="translate(823.0, 404.0)" data-icon-size="72" stroke-dasharray="6 4">
        <g transform="translate(-5.890909090909094,-5.8909090909090915) scale(2.0945454545454547)">
          <path d="m31.466,14.466c0-6.333-5.134-11.466-11.466-11.466s-11.466,5.134-11.466,11.466v15.902c0,3.663,2.969,6.632,6.632,6.632,2.372,0,4.447-1.249,5.619-3.121l.007.002,8.499-12.695-.012-.004c1.369-1.889,2.186-4.204,2.186-6.716Z" fill="#ffc84d"/>
          <path d="m18.79,25.338c0,2.137-1.732,3.869-3.869,3.869-1.829,0-3.869-2.642-3.869-2.642v-1.226c0-2.137,1.732-3.869,3.869-3.869s3.869,1.732,3.869,3.869Z" fill="#cc6a00"/>
          <path d="m27.477,15.699c0-4.536-3.677-8.213-8.213-8.213s-8.213,3.677-8.213,8.213v.202c.485-.138.986-.235,1.515-.235,3.074,0,5.567,2.492,5.567,5.567s-2.492,5.567-5.567,5.567c-.529,0-1.03-.097-1.515-.235v.524c0,2.624,2.127,4.75,4.75,4.75,1.699,0,3.185-.895,4.025-2.235h.005s6.088-9.092,6.088-9.092l-.009-.003c.981-1.353,1.566-3.011,1.566-4.81Z" fill="#ffa52e"/>
          <path d="m27.312,14.055c-.762-3.748-4.075-6.569-8.047-6.569-4.536,0-8.213,3.677-8.213,8.213v.202c.485-.138.986-.235,1.515-.235.579,0,1.137.089,1.661.252h0s4.129-8.274,13.084-1.863Z" fill="#f78700"/>
        </g>
      </g>
      <g transform="translate(100, 300)">
        <text id="ITEM_1_HEAD" text-anchor="end" font-weight="bold" font-size="28" fill="var(--inverse-text)" x="340.0" y="-30.0" data-bg-id="ITEM_1_BG" fill-opacity="1.0" style="font-size: 30px; font-family: Inter, Segoe UI, Kalam, Roboto, Helvetica, Arial, sans-serif; font-weight: 700; letter-spacing:-0.4px;" data-final-font-size="30">
          <tspan x="340.0" dy="28.25px">Silent Motion</tspan>
        </text>
        <rect id="ITEM_1_HEAD_FRAME" x="0" y="-30" width="340" height="40" fill="none"/>
        <text id="ITEM_1_BODY" text-anchor="end" font-size="20" fill="var(--inverse-text)" x="330.0" y="15.0" opacity="0.9" data-bg-id="ITEM_1_BG" style="font-size: 26px; font-family: Inter, Segoe UI, Kalam, Roboto, Helvetica, Arial, sans-serif; font-weight: 400;" data-final-font-size="26">
          <tspan x="330.0" dy="26.86px">Lack of engine noise suggests</tspan>
          <tspan x="330.0" dy="29.90px">advanced technology to</tspan>
          <tspan x="330.0" dy="29.90px">witnesses</tspan>
        </text>
        <rect id="ITEM_1_BODY_FRAME" x="-50" y="15.0" width="380" height="120" fill="none"/>
      </g>
    </g>
    <g>
      <path id="ITEM_2_BG" d="M 960 580 L 960 260 L 1264 481 Z" fill="var(--accent-4)" stroke="var(--accent-2)" stroke-width="3" fill-opacity="1.0"/>
      <path d="M 1160 350 L 1470 350" fill="none" stroke="var(--accent-2)" stroke-width="2" stroke-dasharray="5 5"/>
      <circle cx="1160" cy="350" r="5" fill="var(--accent-2)"/>
      <circle cx="1061.0" cy="440.0" r="64" fill="url(#svg54855041-universal-icon-aura)" opacity="0.84"/>
      <circle id="ITEM_2_PAD" cx="1061.0" cy="440.0" r="46" fill="var(--icon-pad-bg)" stroke="var(--primary-text)" opacity="0.9" fill-opacity="0.9" stroke-width="2"/>
      <circle id="ITEM_2_PAD_INNER" cx="1061.0" cy="440.0" r="35.88" fill="var(--accent-4)" fill-opacity="0.22"/>
      <circle cx="1061.0" cy="440.0" r="36.8" fill="none" stroke="var(--accent-1)" stroke-width="3" stroke-dasharray="6 4"/>
      <g id="ITEM_2_ICON" transform="translate(1025.0, 404.0)" data-icon-size="72" stroke-dasharray="6 4">
        <g transform="translate(-3.050847457627119,-3.0508474576271194) scale(3.2542372881355934)" vector-effect="non-scaling-stroke" stroke-width="2.58" stroke-linecap="round" stroke-linejoin="round" stroke-opacity="1.0">
          <path d="M12.8 19.6A2 2 0 1 0 14 16H2" vector-effect="non-scaling-stroke" fill="none" stroke="#f1f5f9"/>
          <path d="M17.5 8a2.5 2.5 0 1 1 2 4H2" vector-effect="non-scaling-stroke" fill="none" stroke="#f1f5f9"/>
          <path d="M9.8 4.4A2 2 0 1 1 11 8H2" vector-effect="non-scaling-stroke" fill="none" stroke="#f1f5f9"/>
        </g>
      </g>
      <g transform="translate(1490, 300)">
        <text id="ITEM_2_HEAD" text-anchor="start" font-weight="bold" font-size="28" fill="var(--inverse-text)" x="-10.0" y="-30.0" data-bg-id="ITEM_2_BG" fill-opacity="1.0" style="font-size: 30px; font-family: Inter, Segoe UI, Kalam, Roboto, Helvetica, Arial, sans-serif; font-weight: 700; letter-spacing:-0.4px;" data-final-font-size="30">
          <tspan x="-10.0" dy="28.25px">Steady Travel</tspan>
        </text>
        <rect id="ITEM_2_HEAD_FRAME" x="-10" y="-30" width="340" height="40" fill="none"/>
        <text id="ITEM_2_BODY" text-anchor="start" font-size="20" fill="var(--inverse-text)" x="0.0" y="15.0" opacity="0.9" data-bg-id="ITEM_2_BG" style="font-size: 26px; font-family: Inter, Segoe UI, Kalam, Roboto, Helvetica, Arial, sans-serif; font-weight: 400;" data-final-font-size="26">
          <tspan x="0.0" dy="26.86px">Wind-borne movement mimics</tspan>
          <tspan x="0.0" dy="29.90px">purposeful flight paths</tspan>
          <tspan x="0.0" dy="29.90px">in the sky</tspan>
        </text>
        <rect id="ITEM_2_BODY_FRAME" x="0" y="15.0" width="380" height="120" fill="none"/>
      </g>
    </g>
    <g>
      <path id="ITEM_3_BG" d="M 960 580 L 1264 481 L 1148 839 Z" fill="var(--accent-5)" stroke="var(--accent-3)" stroke-width="3" fill-opacity="1.0"/>
      <path d="M 1200 600 L 1470 600" fill="none" stroke="var(--accent-3)" stroke-width="2" stroke-dasharray="5 5"/>
      <circle cx="1200" cy="600" r="5" fill="var(--accent-3)"/>
      <circle cx="1124.0" cy="633.0" r="64" fill="url(#svg54855041-universal-icon-aura)" opacity="0.84"/>
      <circle id="ITEM_3_PAD" cx="1124.0" cy="633.0" r="46" fill="var(--icon-pad-bg)" stroke="var(--primary-text)" opacity="0.9" fill-opacity="0.9" stroke-width="2"/>
      <circle id="ITEM_3_PAD_INNER" cx="1124.0" cy="633.0" r="35.88" fill="var(--accent-5)" fill-opacity="0.22"/>
      <circle cx="1124.0" cy="633.0" r="36.8" fill="none" stroke="var(--accent-2)" stroke-width="3" stroke-dasharray="6 4"/>
      <g id="ITEM_3_ICON" transform="translate(1088.0, 597.0)" data-icon-size="72" stroke-dasharray="6 4">
        <g transform="translate(-3.327731092436972,-2.4201680672268906) scale(0.15126050420168066)" vector-effect="non-scaling-stroke" fill="#f1f5f9" fill-opacity="1.0" stroke="none">
          <path fill="#f1f5f9" d="M334.656 17.125c-39.668 10.85-74.78 27.46-100.75 51.97c-.7-12.52-4.5-25.147-13.28-38.032c-.99 44.914-50.315 103.934-30.5 153.53c.003.01-.005.023 0 .032c7.68 30.364 37.266 53.535 65.468 58.313c-2.05-19.67-7.09-37.707-14.47-54.72l17.157-7.437c8.366 19.287 13.92 39.993 16 62.47c23.252-3.66 41.33-23.623 38.283-67.594c-3.658-52.788-.63-114.802 22.093-158.53zM209.53 258.72c-31.372.18-59.653 7.37-81.81 19.936c-22.914 12.996-39.443 32.518-44.376 55.5c-2.557 8.937-4.03 19.326-4.03 30.406c0 32.55 12.64 59.1 28.5 60.532V489.5h301.155v-18.47c1.204.15 2.44.22 3.686.22c16.484 0 29.844-13.362 29.844-29.844c0-15.464-11.78-28.173-26.844-29.687c-2.632-46.515-15.848-80.1-41.875-103.47c-23.49-21.094-56.093-33.432-98.592-41.78c-.3 21.733-3.715 45.06-10.75 70.28l-18.032-5.03c7.006-25.113 10.208-47.738 10.22-68.533a731 731 0 0 0-14.813-2.25c-11.03-1.55-21.824-2.28-32.282-2.218zm-103.186 79.186h18.687c0 5.588 2.556 11.307 8.69 17.5c6.13 6.194 15.744 12.395 28.06 17.656c24.636 10.524 59.83 17.375 98.75 17.375c49.15 0 92.438-11.197 115.845-26.312l10.125 15.72c-28.443 18.366-74.097 29.28-125.97 29.28c-41.077 0-78.3-7.003-106.092-18.875c-13.897-5.936-25.473-13.075-34-21.688s-14.094-19.157-14.094-30.656z" vector-effect="non-scaling-stroke" stroke="none"/>
        </g>
      </g>
      <g transform="translate(1490, 550)">
        <text id="ITEM_3_HEAD" text-anchor="start" font-weight="bold" font-size="28" fill="var(--inverse-text)" x="-10.0" y="-30.0" data-bg-id="ITEM_3_BG" fill-opacity="1.0" style="font-size: 30px; font-family: Inter, Segoe UI, Kalam, Roboto, Helvetica, Arial, sans-serif; font-weight: 700; letter-spacing:-0.4px;" data-final-font-size="30">
          <tspan x="-10.0" dy="28.25px">Warm Colors</tspan>
        </text>
        <rect id="ITEM_3_HEAD_FRAME" x="-10" y="-30" width="340" height="40" fill="none"/>
        <text id="ITEM_3_BODY" text-anchor="start" font-size="20" fill="var(--inverse-text)" x="0.0" y="15.0" opacity="0.9" data-bg-id="ITEM_3_BG" style="font-size: 26px; font-family: Inter, Segoe UI, Kalam, Roboto, Helvetica, Arial, sans-serif; font-weight: 400;" data-final-font-size="26">
          <tspan x="0.0" dy="32.84px">Orange and reddish glows match</tspan>
          <tspan x="0.0" dy="29.90px">common UFO descriptions</tspan>
        </text>
        <rect id="ITEM_3_BODY_FRAME" x="0" y="15.0" width="380" height="120" fill="none"/>
      </g>
    </g>
    <g>
      <path id="ITEM_4_BG" d="M 960 580 L 1148 839 L 772 839 Z" fill="var(--accent-6)" stroke="var(--accent-4)" stroke-width="3" fill-opacity="1.0"/>
      <path d="M 1050 820 L 1470 820" fill="none" stroke="var(--accent-4)" stroke-width="2" stroke-dasharray="5 5"/>
      <circle cx="1050" cy="820" r="5" fill="var(--accent-4)"/>
      <circle cx="960.0" cy="753.0" r="64" fill="url(#svg54855041-universal-icon-aura)" opacity="0.84"/>
      <circle id="ITEM_4_PAD" cx="960.0" cy="753.0" r="46" fill="var(--icon-pad-bg)" stroke="var(--primary-text)" opacity="0.9" fill-opacity="0.9" stroke-width="2"/>
      <circle id="ITEM_4_PAD_INNER" cx="960.0" cy="753.0" r="35.88" fill="var(--accent-6)" fill-opacity="0.22"/>
      <circle cx="960.0" cy="753.0" r="36.8" fill="none" stroke="var(--accent-3)" stroke-width="3" stroke-dasharray="6 4"/>
      <g id="ITEM_4_ICON" transform="translate(924.0, 717.0)" data-icon-size="72" stroke-dasharray="6 4">
        <g transform="translate(-5.142857142857143,-5.142857142857143) scale(2.5714285714285716)">
          <path d="M14.9998 5.5L16.6147 4.98752L16.6662 4.93638C17.1092 4.49106 17.1092 3.78065 16.6768 3.33532C16.2443 2.88999 15.5272 2.89002 15.0842 3.32474L14.0215 4.38018L14.9998 5.5ZM28.659 17.9364L27.9804 18.6117L26.9998 17.5L27.4424 16.0851C27.8529 15.9163 28.3427 15.9981 28.6695 16.3353C29.1116 16.77 29.1116 17.4911 28.659 17.9364Z" fill="#9B9B9B"/>
          <path d="M14.1209 28.8751L12.7723 23.3207C14.5105 22.308 16.1288 21.1049 17.5973 19.7113L21.0251 16.4565L24.4676 14.906L26.411 11.3426L28.7058 9.16379C30.394 7.5596 30.434 4.88261 28.8057 3.2283C27.1674 1.57399 24.5001 1.59405 22.8818 3.26841L20.3602 5.89209L16.2607 7.61854L15.2234 11.2368L12.2628 14.3172C10.8643 15.781 9.63554 17.3952 8.6166 19.1297L3.09231 17.7261C2.78264 17.6459 2.46297 17.7361 2.2332 17.9567C1.79366 18.3978 2.03342 18.9493 2.47296 19.4105L12.4227 29.4968C12.9121 30.0181 13.4316 30.1886 13.8712 29.7474C14.1109 29.5068 14.2008 29.186 14.1209 28.8751Z" fill="#CDC4D6"/>
          <path d="M27.7929 5.76988L26.2533 4.21808C25.9708 3.92892 25.503 3.92894 25.2205 4.20846C24.9282 4.48797 24.9282 4.95062 25.2107 5.23013L26.7503 6.78191C27.0329 7.07106 27.5006 7.07107 27.7831 6.79156C28.0657 6.51204 28.0755 6.05904 27.7929 5.76988Z" fill="#00A6ED"/>
          <path d="M15.2156 11.2449L20.3817 5.8697L8.34626 3.051C7.88626 2.941 7.39625 3.011 6.97625 3.241C5.67625 3.971 5.67625 5.83101 6.96625 6.56101L15.2156 11.2449ZM26.4293 11.3253L21.0085 16.4723L25.46 24.7C26.16 26.01 28.03 26.04 28.78 24.76C29.02 24.35 29.1 23.87 29 23.4L26.4293 11.3253ZM8.15643 22.3151C8.57618 21.8934 9.26303 21.8934 9.68277 22.3246C10.1121 22.7463 10.1025 23.4363 9.67323 23.8579L6.83996 26.6849C6.42022 27.1066 5.73337 27.1066 5.31362 26.6754C4.89388 26.2537 4.89388 25.5637 5.32317 25.1421L8.15643 22.3151Z" fill="#0084CE"/>
        </g>
      </g>
      <g transform="translate(1490, 770)">
        <text id="ITEM_4_HEAD" text-anchor="start" font-weight="bold" font-size="28" fill="var(--primary-text)" x="-10.0" y="-30.0" data-bg-id="ITEM_4_BG" fill-opacity="1.0" style="font-size: 30px; font-family: Inter, Segoe UI, Kalam, Roboto, Helvetica, Arial, sans-serif; font-weight: 700; letter-spacing:-0.4px;" data-final-font-size="30">
          <tspan x="-10.0" dy="28.25px">Formation Effects</tspan>
        </text>
        <rect id="ITEM_4_HEAD_FRAME" x="-10" y="-30" width="340" height="40" fill="none"/>
        <text id="ITEM_4_BODY" text-anchor="start" font-size="20" fill="var(--primary-text)" x="0.0" y="15.0" opacity="0.9" data-bg-id="ITEM_4_BG" style="font-size: 26px; font-family: Inter, Segoe UI, Kalam, Roboto, Helvetica, Arial, sans-serif; font-weight: 400;" data-final-font-size="26">
          <tspan x="0.0" dy="32.84px">Multiple balloons released</tspan>
          <tspan x="0.0" dy="29.90px">together appear as a fleet</tspan>
        </text>
        <rect id="ITEM_4_BODY_FRAME" x="0" y="15.0" width="380" height="120" fill="none"/>
      </g>
    </g>
    <g>
      <path id="ITEM_5_BG" d="M 960 580 L 772 839 L 656 481 Z" fill="var(--accent-1)" stroke="var(--accent-5)" stroke-width="3" fill-opacity="1.0"/>
      <path d="M 720 600 L 450 600" fill="none" stroke="var(--accent-5)" stroke-width="2" stroke-dasharray="5 5"/>
      <circle cx="720" cy="600" r="5" fill="var(--accent-5)"/>
      <circle cx="796.0" cy="633.0" r="64" fill="url(#svg54855041-universal-icon-aura)" opacity="0.84"/>
      <circle id="ITEM_5_PAD" cx="796.0" cy="633.0" r="46" fill="var(--icon-pad-bg)" stroke="var(--primary-text)" opacity="0.9" fill-opacity="0.9" stroke-width="2"/>
      <circle id="ITEM_5_PAD_INNER" cx="796.0" cy="633.0" r="35.88" fill="var(--accent-1)" fill-opacity="0.22"/>
      <circle cx="796.0" cy="633.0" r="36.8" fill="none" stroke="var(--accent-4)" stroke-width="3" stroke-dasharray="6 4"/>
      <g id="ITEM_5_ICON" transform="translate(760.0, 597.0)" data-icon-size="72" stroke-dasharray="6 4">
        <g transform="translate(-3.050847457627119,-2.4406779661016946) scale(3.2542372881355934)" vector-effect="non-scaling-stroke" stroke-width="2.58" stroke-linecap="round" stroke-linejoin="round" stroke-opacity="1.0">
          <path d="m5.2 6.2 1.4 1.4" vector-effect="non-scaling-stroke" fill="none" stroke="#f1f5f9"/>
          <path d="M2 13h2" vector-effect="non-scaling-stroke" fill="none" stroke="#f1f5f9"/>
          <path d="M20 13h2" vector-effect="non-scaling-stroke" fill="none" stroke="#f1f5f9"/>
          <path d="m17.4 7.6 1.4-1.4" vector-effect="non-scaling-stroke" fill="none" stroke="#f1f5f9"/>
          <path d="M22 17H2" vector-effect="non-scaling-stroke" fill="none" stroke="#f1f5f9"/>
          <path d="M22 21H2" vector-effect="non-scaling-stroke" fill="none" stroke="#f1f5f9"/>
          <path d="M16 13a4 4 0 0 0-8 0" vector-effect="non-scaling-stroke" fill="none" stroke="#f1f5f9"/>
          <path d="M12 5V2.5" vector-effect="non-scaling-stroke" fill="none" stroke="#f1f5f9"/>
        </g>
      </g>
      <g transform="translate(100, 550)">
        <text id="ITEM_5_HEAD" text-anchor="end" font-weight="bold" font-size="28" fill="var(--primary-text)" x="340.0" y="-30.0" data-bg-id="ITEM_5_BG" fill-opacity="1.0" style="font-size: 30px; font-family: Inter, Segoe UI, Kalam, Roboto, Helvetica, Arial, sans-serif; font-weight: 700; letter-spacing:-0.4px;" data-final-font-size="30">
          <tspan x="340.0" dy="28.25px">Sudden Disappearance</tspan>
        </text>
        <rect id="ITEM_5_HEAD_FRAME" x="0" y="-30" width="340" height="40" fill="none"/>
        <text id="ITEM_5_BODY" text-anchor="end" font-size="20" fill="var(--primary-text)" x="330.0" y="15.0" opacity="0.9" data-bg-id="ITEM_5_BG" style="font-size: 26px; font-family: Inter, Segoe UI, Kalam, Roboto, Helvetica, Arial, sans-serif; font-weight: 400;" data-final-font-size="26">
          <tspan x="330.0" dy="32.84px">Burned out lanterns or burst</tspan>
          <tspan x="330.0" dy="29.90px">balloons vanish instantly</tspan>
        </text>
        <rect id="ITEM_5_BODY_FRAME" x="-50" y="15.0" width="380" height="120" fill="none"/>
      </g>
    </g>
  </g>
</svg>
