<?xml version='1.0' encoding='utf-8'?>
<svg xmlns="http://www.w3.org/2000/svg" width="1920" height="1080" viewBox="0 0 1920 1080" data-theme="light">
  <style>
        @font-face {
            font-family: 'Inter';
            src: url('assets/fonts/Inter-Regular.ttf') format('truetype');
            font-weight: 400;
            font-style: normal;
            font-display: swap;
        }
        @font-face {
            font-family: 'Inter';
            src: url('assets/fonts/Inter-Bold.ttf') format('truetype');
            font-weight: 600;
            font-style: normal;
            font-display: swap;
        }
        @font-face {
            font-family: 'Inter';
            src: url('assets/fonts/Inter-Bold.ttf') format('truetype');
            font-weight: 800;
            font-style: normal;
            font-display: swap;
        }
        
:root {
    --background: #f8fafc;
    --panel: #ffffff;
    --primary-text: #0f172a;
    --muted-text: #64748b;
    --inverse-text: #ffffff;
    --border: #e2e8f0;
    --shadow-color: #000000;
    --icon-pad-bg: #1e293b;
    --art-glow: #0891b2;
    --art-glow-opacity: 0.10;
    --art-sheen: #ffffff;
    --art-sheen-opacity: 0.34;
    --art-shadow: #0f172a;
    --art-shadow-opacity: 0.14;
    --art-muted-line: #94a3b8;
    --art-panel-tint: #f1f5f9;
    --font-family: 'Inter', 'Segoe UI', 'Kalam', Roboto, Helvetica, Arial, sans-serif;
    --radius-xl: 16px;
    --font-family-headline: 'Inter', 'Segoe UI', 'Kalam', Roboto, Helvetica, Arial, sans-serif;
    --font-family-body: 'Inter', 'Segoe UI', 'Kalam', Roboto, Helvetica, Arial, sans-serif;
    --font-heading: 'Inter', 'Segoe UI', 'Kalam', Roboto, Helvetica, Arial, sans-serif;
    --font-body: 'Inter', 'Segoe UI', 'Kalam', Roboto, Helvetica, Arial, sans-serif;
    --font-size-h1: 56px;
    --font-size-h2: 40px;
    --font-size-h3: 28px;
    --font-size-body: 24px;
    --font-size-caption: 18px;
    --secondary-text: var(--muted-text);
    --panel-border: var(--border);
    --font-weight-normal: 400;
    --font-weight-medium: 500;
    --font-weight-semibold: 600;
    --font-weight-bold: 700;
    --spacing-gutter-pct: 0.07;
    --spacing-top-pct: 0.15;
    --spacing-bottom-pct: 0.07;
    --spacing-title-y-pct: 0.055;
    --accent-1: #4f46e5;
    --accent-2: #059669;
    --accent-3: #db2777;
    --accent-4: #d97706;
    --accent-5: #0284c7;
    --accent-6: #7c3aed;
    --accent-7: #dc2626;
    --accent-8: #0d9488;
    --accent-9: #ea580c;
    --accent-10: #c026d3;
}
:root[data-theme="dark"] {
    --background: #0f172a;
    --panel: #1e293b;
    --primary-text: #f1f5f9;
    --muted-text: #94a3b8;
    --inverse-text: #0f172a;
    --border: #334155;
    --shadow-color: #000000;
    --icon-pad-bg: #1e293b;
    --art-glow: #7dd3fc;
    --art-glow-opacity: 0.18;
    --art-sheen: #ffffff;
    --art-sheen-opacity: 0.18;
    --art-shadow: #000000;
    --art-shadow-opacity: 0.28;
    --art-muted-line: #64748b;
    --art-panel-tint: #1e293b;
    --accent-1: #a5b4fc;
    --accent-2: #34d399;
    --accent-3: #f472b6;
    --accent-4: #fbbf24;
    --accent-5: #38bdf8;
    --accent-6: #c084fc;
    --accent-7: #f87171;
    --accent-8: #2dd4bf;
    --accent-9: #fb923c;
    --accent-10: #e879f9;
}
:root[data-theme="light"] {
    --background: #f8fafc;
    --panel: #ffffff;
    --primary-text: #0f172a;
    --muted-text: #64748b;
    --inverse-text: #ffffff;
    --border: #e2e8f0;
    --shadow-color: #000000;
    --icon-pad-bg: #1e293b;
    --art-glow: #0891b2;
    --art-glow-opacity: 0.10;
    --art-sheen: #ffffff;
    --art-sheen-opacity: 0.34;
    --art-shadow: #0f172a;
    --art-shadow-opacity: 0.14;
    --art-muted-line: #94a3b8;
    --art-panel-tint: #f1f5f9;
    --accent-1: #4f46e5;
    --accent-2: #059669;
    --accent-3: #db2777;
    --accent-4: #d97706;
    --accent-5: #0284c7;
    --accent-6: #7c3aed;
    --accent-7: #dc2626;
    --accent-8: #0d9488;
    --accent-9: #ea580c;
    --accent-10: #c026d3;
}</style>
  <rect x="0" y="0" width="1.92E+3" height="1.08E+3" fill="#252a34" stroke="none" id="programmatic_background"/>
  <line id="HEADER_DECOR" x1="960.0" x2="1080.0" y1="135.0" y2="135.0" stroke="var(--accent-1)" stroke-width="6" stroke-linecap="round"/>
  <defs>
    <pattern id="svga0b50440-napkin-hatch" patternUnits="userSpaceOnUse" width="12" height="12">
      <path d="M -3 12 L 12 -3 M 0 15 L 15 0" fill="none" stroke="var(--primary-text)" stroke-width="1" stroke-opacity="0.05"/>
    </pattern>
    <filter id="svga0b50440-shadow" x="-30%" y="-30%" width="160%" height="160%">
      <feDropShadow dx="0" dy="2" stdDeviation="3" flood-color="#000000" flood-opacity="0.08"/>
      <feDropShadow dx="0" dy="6" stdDeviation="10" flood-color="#000000" flood-opacity="0.12"/>
    </filter>
    <radialGradient id="svga0b50440-universal-edge-vignette" cx="50%" cy="50%" r="72%">
      <stop offset="0%" stop-color="var(--background)" stop-opacity="0"/>
      <stop offset="72%" stop-color="var(--background)" stop-opacity="0.12"/>
      <stop offset="100%" stop-color="var(--primary-text)" stop-opacity="0.08"/>
    </radialGradient>
    <linearGradient id="svga0b50440-universal-surface-sheen" x1="0%" y1="0%" x2="100%" y2="100%">
      <stop offset="0%" stop-color="var(--art-sheen)" stop-opacity="var(--art-sheen-opacity)"/>
      <stop offset="46%" stop-color="var(--art-sheen)" stop-opacity="0.035"/>
      <stop offset="100%" stop-color="var(--art-panel-tint)" stop-opacity="0.14"/>
    </linearGradient>
    <radialGradient id="svga0b50440-universal-icon-aura" cx="50%" cy="42%" r="64%">
      <stop offset="0%" stop-color="var(--art-glow)" stop-opacity="var(--art-glow-opacity)"/>
      <stop offset="100%" stop-color="var(--background)" stop-opacity="0"/>
    </radialGradient>
    <linearGradient id="svga0b50440-fact-card-sheen" x1="0%" y1="0%" x2="100%" y2="100%">
      <stop offset="0%" stop-color="var(--inverse-text)" stop-opacity="0.18"/>
      <stop offset="54%" stop-color="var(--inverse-text)" stop-opacity="0.04"/>
      <stop offset="100%" stop-color="var(--background)" stop-opacity="0.14"/>
    </linearGradient>
    <radialGradient id="svga0b50440-fact-icon-glow" cx="50%" cy="42%" r="62%">
      <stop offset="0%" stop-color="var(--inverse-text)" stop-opacity="0.22"/>
      <stop offset="100%" stop-color="var(--background)" stop-opacity="0"/>
    </radialGradient>
    <filter id="svga0b50440-text-glow" x="-20%" y="-20%" width="140%" height="140%">
      <feDropShadow dx="0" dy="0" stdDeviation="2" flood-color="#000000" flood-opacity="0.4"/>
    </filter>
    <marker id="svga0b50440-arrowhead" markerWidth="10" markerHeight="7" refX="9" refY="3.5" orient="auto" markerUnits="strokeWidth">
      <polygon points="0 0, 10 3.5, 0 7" fill="var(--muted-text)" opacity="0.6"/>
    </marker>
  </defs>
  <rect width="100%" height="100%" fill="var(--background)" id="CANVAS_BG"/>
  <rect width="100%" height="100%" fill="url(#svga0b50440-napkin-hatch)"/>
  <rect id="UNIVERSAL_EDGE_VIGNETTE" width="100%" height="100%" fill="url(#svga0b50440-universal-edge-vignette)" opacity="0.62"/>
  <line x1="960" y1="178" x2="960" y2="986" stroke="var(--muted-text)" stroke-width="5" stroke-opacity="0.10" stroke-linecap="round"/>
  <path d="M 360 178 C 620 152 1300 152 1560 178" fill="none" stroke="var(--primary-text)" stroke-width="2" stroke-opacity="0.12" stroke-linecap="round"/>
  <text id="TITLE" x="960.0" y="59" font-size="72" font-weight="800" fill="#0f172a" style="font-size: 60px; font-family: Inter, Segoe UI, Kalam, Roboto, Helvetica, Arial, sans-serif; font-weight: 700; letter-spacing:-1.2px;" text-anchor="middle" data-final-font-size="60">
    <tspan x="960.0" dy="68.00px">Potential Explanations for Lübeck Lights</tspan>
  </text>
  <rect id="TITLE_FRAME" x="134" y="59" width="1652" height="103" fill="none"/>
  <g transform="translate(960.0, 220.0)">
    <rect id="ITEM_1_BG" x="-600" y="-64" width="1200" height="184" rx="18" fill="var(--accent-7)" stroke="var(--accent-1)" filter="url(#svga0b50440-shadow)" stroke-width="3" fill-opacity="1.0"/>
    <g transform="translate(-480.0, 0.0)">
      <circle r="45" fill="var(--background)" opacity="0.3"/>
      <circle id="ITEM_1_PAD" cx="0" cy="0" r="42" fill="var(--icon-pad-bg)" stroke="var(--primary-text)" opacity="0.9" fill-opacity="0.9" stroke-width="2"/>
      <circle id="ITEM_1_PAD_INNER" cx="0" cy="0" r="32.76" fill="var(--accent-7)" fill-opacity="0.22"/>
      <circle cx="0" cy="0" r="34" fill="none" stroke="var(--accent-1)" stroke-width="3" stroke-dasharray="6 4"/>
      <g id="ITEM_1_ICON" transform="translate(-34, -34)" data-icon-size="68" stroke-dasharray="6 4">
        <g transform="translate(-3.6428571428571423,-4.5535714285714235) scale(2.4285714285714284)">
          <path d="M14.3675 5.87431L10.6615 3.30015C10.2652 3.02489 9.72534 3.12861 9.44275 3.51981L1.77125 14.5646C1.496 14.9609 1.59462 15.5081 1.99091 15.7833L5.69698 18.3575C6.09327 18.6328 6.64046 18.5341 6.91571 18.1378L14.5872 7.09304C14.8625 6.69675 14.7638 6.14956 14.3675 5.87431ZM16.6809 25.9761L20.3869 28.5502C20.7832 28.8255 21.3253 28.7342 21.6006 28.3379L29.272 17.2931C29.5473 16.8968 29.4487 16.3496 29.0524 16.0744L25.3463 13.5002C24.95 13.225 24.4028 13.3236 24.1276 13.7199L16.4612 24.7573C16.1859 25.1536 16.2846 25.7008 16.6809 25.9761Z" fill="#635994"/>
          <path d="M21.4869 12.9951L19.3688 10.6316L16.2031 9.32501L15.1836 10.7928L17.5195 13.2275L20.4675 14.4628L21.4869 12.9951Z" fill="#998EA4"/>
          <path d="M12.4766 13.2646L11.0088 12.2451L10.4991 12.979L11.9668 13.9985L12.4766 13.2646ZM19.0888 17.8571L20.5566 18.8765L20.0468 19.6104L18.5791 18.5909L19.0888 17.8571ZM13.5848 19.4848L12.8509 18.9751L11.3217 21.1767L12.0556 21.6865L13.5848 19.4848ZM9.29531 24.1097L10.0365 24.6246L8.50732 26.8262L7.76611 26.3114L9.29531 24.1097Z" fill="#1C1C1C"/>
          <path d="M12.5996 6.82217L10.3979 5.29297L8.86874 7.49459L11.0704 9.02379L12.5996 6.82217ZM7.84939 8.96277L10.051 10.492L8.52181 12.6936L6.32019 11.1644L7.84939 8.96277ZM7.50231 14.1613L5.30069 12.6321L3.77148 14.8337L5.97311 16.3629L7.50231 14.1613ZM25.0828 15.4929L27.2844 17.0221L25.7552 19.2237L23.5536 17.6945L25.0828 15.4929ZM22.5342 19.1624L24.7358 20.6916L23.2066 22.8932L21.005 21.364L22.5342 19.1624ZM22.1872 24.3606L19.9855 22.8314L18.4563 25.033L20.658 26.5622L22.1872 24.3606Z" fill="#BCA4EB"/>
          <path d="M16.1371 9.27938L21.5458 13.0361C21.876 13.2655 22.3311 13.1899 22.5531 12.8546L23.2514 11.8492C23.4808 11.5189 23.4001 11.0712 23.0699 10.8418L17.6612 7.0851C17.331 6.85572 16.8833 6.9364 16.6539 7.26665L15.9556 8.27206C15.7262 8.6023 15.8069 9.05 16.1371 9.27938ZM8.98669 27.7029C8.56441 28.3108 7.72923 28.4613 7.12127 28.0391C6.51331 27.6168 6.36279 26.7816 6.78506 26.1737C7.20734 25.5657 8.04251 25.4152 8.65048 25.8374C9.25844 26.2597 9.40896 27.0949 8.98669 27.7029ZM12.3559 26.2356L6.9766 22.4993C6.40418 22.1017 6.3806 21.2585 6.9266 20.8327C8.43104 19.6691 10.5674 19.5537 12.2112 20.6955C13.8551 21.8373 14.4928 23.8795 13.9278 25.6955C13.7216 26.3683 12.9283 26.6332 12.3559 26.2356ZM10.5301 17.3519L15.9387 21.1087C16.269 21.3381 16.724 21.2625 16.946 20.9271L20.7028 15.5185C20.9322 15.1882 20.8515 14.7405 20.5212 14.5111L15.1126 10.7544C14.7823 10.525 14.3346 10.6057 14.1053 10.936L10.3485 16.3446C10.1191 16.6749 10.1998 17.1226 10.5301 17.3519Z" fill="#B4ACBC"/>
        </g>
      </g>
    </g>
    <g transform="translate(-330, -34)">
      <text id="ITEM_1_HEAD" text-anchor="start" font-weight="bold" font-size="29" fill="var(--inverse-text)" x="0.0" y="-10.0" data-bg-id="ITEM_1_BG" fill-opacity="1.0" style="font-size: 30px; font-family: Inter, Segoe UI, Kalam, Roboto, Helvetica, Arial, sans-serif; font-weight: 700; letter-spacing:-0.4px;" data-final-font-size="30">
        <tspan x="0.0" dy="33.03px">Satellite Chains</tspan>
      </text>
      <rect id="ITEM_1_HEAD_FRAME" x="0" y="-10" width="846" height="42" fill="none"/>
      <text id="ITEM_1_BODY" text-anchor="start" font-size="21" fill="var(--inverse-text)" x="0.0" y="30.0" data-bg-id="ITEM_1_BG" style="font-size: 26px; font-family: Inter, Segoe UI, Kalam, Roboto, Helvetica, Arial, sans-serif; font-weight: 400;" data-final-font-size="26">
        <tspan x="0.0" dy="42.18px">Newly launched Starlink units appear as light strings</tspan>
      </text>
      <rect id="ITEM_1_BODY_FRAME" x="0" y="30" width="846" height="114" fill="none"/>
    </g>
  </g>
  <g transform="translate(960.0, 390.0)">
    <rect id="ITEM_2_BG" x="-600" y="-64" width="1200" height="184" rx="18" fill="var(--accent-8)" stroke="var(--accent-2)" filter="url(#svga0b50440-shadow)" stroke-width="3" fill-opacity="1.0"/>
    <g transform="translate(-480.0, 0.0)">
      <circle r="45" fill="var(--background)" opacity="0.3"/>
      <circle id="ITEM_2_PAD" cx="0" cy="0" r="42" fill="var(--icon-pad-bg)" stroke="var(--primary-text)" opacity="0.9" fill-opacity="0.9" stroke-width="2"/>
      <circle id="ITEM_2_PAD_INNER" cx="0" cy="0" r="32.76" fill="var(--accent-8)" fill-opacity="0.22"/>
      <circle cx="0" cy="0" r="34" fill="none" stroke="var(--accent-1)" stroke-width="3" stroke-dasharray="6 4"/>
      <g id="ITEM_2_ICON" transform="translate(-34, -34)" data-icon-size="68" stroke-dasharray="6 4">
        <g transform="translate(-6.296296296296296,-6.296296296296296) scale(3.3580246913580245)" vector-effect="non-scaling-stroke" stroke-width="2.53" stroke-linecap="round" stroke-linejoin="round" stroke-opacity="1.0">
          <path d="M10 10 7 7" vector-effect="non-scaling-stroke" fill="none" stroke="#f1f5f9"/>
          <path d="m10 14-3 3" vector-effect="non-scaling-stroke" fill="none" stroke="#f1f5f9"/>
          <path d="m14 10 3-3" vector-effect="non-scaling-stroke" fill="none" stroke="#f1f5f9"/>
          <path d="m14 14 3 3" vector-effect="non-scaling-stroke" fill="none" stroke="#f1f5f9"/>
          <path d="M14.205 4.139a4 4 0 1 1 5.439 5.863" vector-effect="non-scaling-stroke" fill="none" stroke="#f1f5f9"/>
          <path d="M19.637 14a4 4 0 1 1-5.432 5.868" vector-effect="non-scaling-stroke" fill="none" stroke="#f1f5f9"/>
          <path d="M4.367 10a4 4 0 1 1 5.438-5.862" vector-effect="non-scaling-stroke" fill="none" stroke="#f1f5f9"/>
          <path d="M9.795 19.862a4 4 0 1 1-5.429-5.873" vector-effect="non-scaling-stroke" fill="none" stroke="#f1f5f9"/>
          <rect x="10" y="8" width="4" height="8" rx="1" vector-effect="non-scaling-stroke" fill="none" stroke="#f1f5f9"/>
        </g>
      </g>
    </g>
    <g transform="translate(-330, -34)">
      <text id="ITEM_2_HEAD" text-anchor="start" font-weight="bold" font-size="29" fill="var(--primary-text)" x="0.0" y="-10.0" data-bg-id="ITEM_2_BG" fill-opacity="1.0" style="font-size: 30px; font-family: Inter, Segoe UI, Kalam, Roboto, Helvetica, Arial, sans-serif; font-weight: 700; letter-spacing:-0.4px;" data-final-font-size="30">
        <tspan x="0.0" dy="33.03px">Drone Formations</tspan>
      </text>
      <rect id="ITEM_2_HEAD_FRAME" x="0" y="-10" width="846" height="42" fill="none"/>
      <text id="ITEM_2_BODY" text-anchor="start" font-size="21" fill="var(--primary-text)" x="0.0" y="30.0" data-bg-id="ITEM_2_BG" style="font-size: 26px; font-family: Inter, Segoe UI, Kalam, Roboto, Helvetica, Arial, sans-serif; font-weight: 400;" data-final-font-size="26">
        <tspan x="0.0" dy="42.18px">Small drones can fly in coordinated triangular patterns</tspan>
      </text>
      <rect id="ITEM_2_BODY_FRAME" x="0" y="30" width="846" height="114" fill="none"/>
    </g>
  </g>
  <g transform="translate(960.0, 560.0)">
    <rect id="ITEM_3_BG" x="-600" y="-64" width="1200" height="184" rx="18" fill="var(--accent-9)" stroke="var(--accent-3)" filter="url(#svga0b50440-shadow)" stroke-width="3" fill-opacity="1.0"/>
    <g transform="translate(-480.0, 0.0)">
      <circle r="45" fill="var(--background)" opacity="0.3"/>
      <circle id="ITEM_3_PAD" cx="0" cy="0" r="42" fill="var(--icon-pad-bg)" stroke="var(--primary-text)" opacity="0.9" fill-opacity="0.9" stroke-width="2"/>
      <circle id="ITEM_3_PAD_INNER" cx="0" cy="0" r="32.76" fill="var(--accent-9)" fill-opacity="0.22"/>
      <circle cx="0" cy="0" r="34" fill="none" stroke="var(--accent-2)" stroke-width="3" stroke-dasharray="6 4"/>
      <g id="ITEM_3_ICON" transform="translate(-34, -34)" data-icon-size="68" stroke-dasharray="6 4">
        <g transform="translate(-2.88135593220339,-2.881355932203393) scale(3.073446327683616)" vector-effect="non-scaling-stroke" stroke-width="2.53" stroke-linecap="round" stroke-linejoin="round" stroke-opacity="1.0">
          <path d="M10 10h4" vector-effect="non-scaling-stroke" fill="none" stroke="#f1f5f9"/>
          <path d="M19 7V4a1 1 0 0 0-1-1h-2a1 1 0 0 0-1 1v3" vector-effect="non-scaling-stroke" fill="none" stroke="#f1f5f9"/>
          <path d="M20 21a2 2 0 0 0 2-2v-3.851c0-1.39-2-2.962-2-4.829V8a1 1 0 0 0-1-1h-4a1 1 0 0 0-1 1v11a2 2 0 0 0 2 2z" vector-effect="non-scaling-stroke" fill="none" stroke="#f1f5f9"/>
          <path d="M 22 16 L 2 16" vector-effect="non-scaling-stroke" fill="none" stroke="#f1f5f9"/>
          <path d="M4 21a2 2 0 0 1-2-2v-3.851c0-1.39 2-2.962 2-4.829V8a1 1 0 0 1 1-1h4a1 1 0 0 1 1 1v11a2 2 0 0 1-2 2z" vector-effect="non-scaling-stroke" fill="none" stroke="#f1f5f9"/>
          <path d="M9 7V4a1 1 0 0 0-1-1H6a1 1 0 0 0-1 1v3" vector-effect="non-scaling-stroke" fill="none" stroke="#f1f5f9"/>
        </g>
      </g>
    </g>
    <g transform="translate(-330, -34)">
      <text id="ITEM_3_HEAD" text-anchor="start" font-weight="bold" font-size="29" fill="var(--primary-text)" x="0.0" y="-10.0" data-bg-id="ITEM_3_BG" fill-opacity="1.0" style="font-size: 30px; font-family: Inter, Segoe UI, Kalam, Roboto, Helvetica, Arial, sans-serif; font-weight: 700; letter-spacing:-0.4px;" data-final-font-size="30">
        <tspan x="0.0" dy="33.03px">Perspective Effects</tspan>
      </text>
      <rect id="ITEM_3_HEAD_FRAME" x="0" y="-10" width="846" height="42" fill="none"/>
      <text id="ITEM_3_BODY" text-anchor="start" font-size="21" fill="var(--primary-text)" x="0.0" y="30.0" data-bg-id="ITEM_3_BG" style="font-size: 26px; font-family: Inter, Segoe UI, Kalam, Roboto, Helvetica, Arial, sans-serif; font-weight: 400;" data-final-font-size="26">
        <tspan x="0.0" dy="42.18px">Lights at different distances may appear as flat shapes</tspan>
      </text>
      <rect id="ITEM_3_BODY_FRAME" x="0" y="30" width="846" height="114" fill="none"/>
    </g>
  </g>
  <g transform="translate(960.0, 730.0)">
    <rect id="ITEM_4_BG" x="-600" y="-64" width="1200" height="184" rx="18" fill="var(--accent-10)" stroke="var(--accent-4)" filter="url(#svga0b50440-shadow)" stroke-width="3" fill-opacity="1.0"/>
    <g transform="translate(-480.0, 0.0)">
      <circle r="45" fill="var(--background)" opacity="0.3"/>
      <circle id="ITEM_4_PAD" cx="0" cy="0" r="42" fill="var(--icon-pad-bg)" stroke="var(--primary-text)" opacity="0.9" fill-opacity="0.9" stroke-width="2"/>
      <circle id="ITEM_4_PAD_INNER" cx="0" cy="0" r="32.76" fill="var(--accent-10)" fill-opacity="0.22"/>
      <circle cx="0" cy="0" r="34" fill="none" stroke="var(--accent-3)" stroke-width="3" stroke-dasharray="6 4"/>
      <g id="ITEM_4_ICON" transform="translate(-34, -34)" data-icon-size="68" stroke-dasharray="6 4">
        <g transform="translate(-4.814159292035399,-6.920353982300888) scale(2.4070796460176993)">
          <path d="M20 9L22 6H27V9H30V15L22 16L14 15L15.5646 9.43999C15.6335 9.17999 15.8696 9 16.1353 9H20Z" fill="#CDC4D6"/>
          <path d="M22 16H30V23L17 26L4 23L2.03838 17.2837C1.85708 16.6418 2.34056 16 3.01543 16H22Z" fill="#CDC4D6"/>
          <path d="M24.66 12.99H25.33C25.7 12.99 25.99 12.69 25.99 12.33V11.66C25.99 11.29 25.69 11 25.33 11H24.66C24.29 11 24 11.3 24 11.66V12.33C24 12.7 24.29 12.99 24.66 12.99Z" fill="#26EAFC"/>
          <path d="M4 23L5.801 29.2731C5.9204 29.7013 6.31841 30 6.76617 30H28.995C29.5522 30 30 29.5519 30 29.0043V23H4Z" fill="#CA0B4A"/>
          <path d="M21 11C21.54 11 22 11 22 12C22 12.9821 21.5563 12.99 21.0289 12.9995L21 13H14.5665L15.1242 11H21Z" fill="#00A6ED"/>
          <path d="M15.3362 21H14.6638C14.3017 21 14 20.6983 14 20.3362V19.6638C14 19.3017 14.2931 19 14.6638 19H15.3362C15.6983 19 16 19.2931 16 19.6638V20.3362C16 20.6983 15.7069 21 15.3362 21Z" fill="#00A6ED"/>
          <path d="M18.6638 21H19.3362C19.7069 21 20 20.6983 20 20.3362V19.6638C20 19.2931 19.6983 19 19.3362 19H18.6638C18.2931 19 18 19.3017 18 19.6638V20.3362C18 20.6983 18.2931 21 18.6638 21Z" fill="#00A6ED"/>
          <path d="M23.3362 21H22.6638C22.2931 21 22 20.6983 22 20.3362V19.6638C22 19.3017 22.2931 19 22.6638 19H23.3362C23.6983 19 24 19.2931 24 19.6638V20.3362C24 20.6983 23.7069 21 23.3362 21Z" fill="#00A6ED"/>
          <path d="M26.6638 21H27.3362C27.7069 21 28 20.6983 28 20.3362V19.6638C28 19.2931 27.6983 19 27.3362 19H26.6638C26.2931 19 26 19.3017 26 19.6638V20.3362C26 20.6983 26.2931 21 26.6638 21Z" fill="#00A6ED"/>
          <path d="M25.33 12.99H24.66C24.29 12.99 24 12.7 24 12.33V11.66C24 11.3 24.29 11 24.66 11H25.33C25.69 11 25.99 11.29 25.99 11.66V12.33C25.99 12.69 25.7 12.99 25.33 12.99Z" fill="#00A6ED"/>
          <path d="M30.01 27.6699C28.26 27.6699 28.26 28.7899 26.5 28.7899C24.75 28.7899 24.75 27.6699 22.99 27.6699C21.24 27.6699 21.24 28.7899 19.49 28.7899C17.74 28.7899 17.74 27.6699 15.99 27.6699C14.24 27.6699 14.24 28.7899 12.49 28.7899C10.74 28.7899 10.74 27.6699 8.99 27.6699C7.24 27.6699 7.24 28.7899 5.5 28.7899C3.75 28.7899 3.75 27.6699 2 27.6699V29.9899H30L30.01 27.6699Z" fill="#00A6ED"/>
          <path d="M26.5962 4C26.8077 4 26.9904 4.18091 26.9904 4.41206H27V6H22L22.6635 4.84422C22.9615 4.3216 23.5096 4 24.0962 4H26.5962Z" fill="#533566"/>
          <path d="M5 16H30V15H5.58C5.26 15 5 15.2626 5 15.5859V16Z" fill="#533566"/>
        </g>
      </g>
    </g>
    <g transform="translate(-330, -34)">
      <text id="ITEM_4_HEAD" text-anchor="start" font-weight="bold" font-size="29" fill="var(--inverse-text)" x="0.0" y="-10.0" data-bg-id="ITEM_4_BG" fill-opacity="1.0" style="font-size: 30px; font-family: Inter, Segoe UI, Kalam, Roboto, Helvetica, Arial, sans-serif; font-weight: 700; letter-spacing:-0.4px;" data-final-font-size="30">
        <tspan x="0.0" dy="33.03px">Port Infrastructure</tspan>
      </text>
      <rect id="ITEM_4_HEAD_FRAME" x="0" y="-10" width="846" height="42" fill="none"/>
      <text id="ITEM_4_BODY" text-anchor="start" font-size="21" fill="var(--inverse-text)" x="0.0" y="30.0" data-bg-id="ITEM_4_BG" style="font-size: 26px; font-family: Inter, Segoe UI, Kalam, Roboto, Helvetica, Arial, sans-serif; font-weight: 400;" data-final-font-size="26">
        <tspan x="0.0" dy="42.18px">Lübeck port lighting and shipping create visual noise</tspan>
      </text>
      <rect id="ITEM_4_BODY_FRAME" x="0" y="30" width="846" height="114" fill="none"/>
    </g>
  </g>
  <g transform="translate(960.0, 900.0)">
    <rect id="ITEM_5_BG" x="-600" y="-64" width="1200" height="184" rx="18" fill="var(--accent-1)" stroke="var(--accent-5)" filter="url(#svga0b50440-shadow)" stroke-width="3" fill-opacity="1.0"/>
    <g transform="translate(-480.0, 0.0)">
      <circle r="45" fill="var(--background)" opacity="0.3"/>
      <circle id="ITEM_5_PAD" cx="0" cy="0" r="42" fill="var(--icon-pad-bg)" stroke="var(--primary-text)" opacity="0.9" fill-opacity="0.9" stroke-width="2"/>
      <circle id="ITEM_5_PAD_INNER" cx="0" cy="0" r="32.76" fill="var(--accent-1)" fill-opacity="0.22"/>
      <circle cx="0" cy="0" r="34" fill="none" stroke="var(--accent-4)" stroke-width="3" stroke-dasharray="6 4"/>
      <g id="ITEM_5_ICON" transform="translate(-34, -34)" data-icon-size="68" stroke-dasharray="6 4">
        <g transform="translate(-3.9115044247787623,-4.814159292035399) scale(2.4070796460176993)">
          <path d="M17.6512 22.27H13.7612C12.9712 22.27 12.3212 22.91 12.3312 23.7V27.59C12.3312 28.38 12.9712 29.02 13.7612 29.02H14.0093C14.3418 29.6109 14.9749 30.01 15.7012 30.01C16.4275 30.01 17.0605 29.6109 17.393 29.02H17.6512C18.4412 29.02 19.0812 28.38 19.0812 27.59V23.7C19.0812 22.91 18.4412 22.27 17.6512 22.27Z" fill="#9B9B9B"/>
          <path d="M18.1611 23.13C18.4011 23.13 18.5911 22.95 18.6111 22.72C18.6811 21.86 19.0511 19.77 21.0711 17.53C22.9611 16.04 24.2111 13.78 24.3611 11.22C24.3811 10.98 24.3911 10.82 24.3911 10.72V10.71V10.7C24.3911 10.65 24.3911 10.62 24.3911 10.62C24.3311 5.84 20.4611 2 15.6911 2C10.9211 2 7.05111 5.84 7.00111 10.6C7.00111 10.6 6.99111 10.84 7.03111 11.24C7.19111 13.78 8.43111 16.03 10.3211 17.52C12.3411 19.77 12.7411 21.86 12.8111 22.72C12.8311 22.95 13.0211 23.13 13.2611 23.13H18.1611Z" fill="#FCD53F"/>
          <path d="M15.7011 10.7C17.3211 10.7 18.6411 12.01 18.6611 13.63V13.71C18.6611 13.74 18.6611 13.78 18.6511 13.84C18.6011 14.68 18.1911 15.47 17.5311 15.99L17.4611 16.04L17.4011 16.1C16.3011 17.32 16.0711 20.42 16.0311 22.12H15.3811C15.3311 20.42 15.0911 17.32 13.9911 16.1L13.9311 16.04L13.8611 15.99C13.2011 15.47 12.7911 14.69 12.7411 13.82C12.7411 13.78 12.7311 13.75 12.7311 13.73V13.64C12.7611 12.02 14.0911 10.7 15.7011 10.7ZM15.7011 9.69995C13.5311 9.69995 11.7611 11.45 11.7411 13.62C11.7411 13.62 11.7411 13.73 11.7511 13.91C11.8211 15.07 12.3911 16.09 13.2511 16.77C14.4511 18.11 14.3911 23.13 14.3911 23.13H17.0311C17.0311 23.13 16.9511 18.11 18.1611 16.78C19.0211 16.1 19.5911 15.07 19.6611 13.9C19.6711 13.79 19.6711 13.72 19.6711 13.67C19.6711 13.65 19.6711 13.63 19.6711 13.63C19.6411 11.45 17.8811 9.69995 15.7011 9.69995Z" fill="#FFB02E"/>
          <path d="M19.1674 25.0525C19.4394 25.0049 19.6213 24.7458 19.5737 24.4738C19.526 24.2018 19.2669 24.0199 18.9949 24.0675L12.2549 25.2475C11.9829 25.2951 11.801 25.5542 11.8486 25.8262C11.8963 26.0983 12.1554 26.2801 12.4274 26.2325L19.1674 25.0525ZM19.1178 27.2025C19.3897 27.1546 19.5714 26.8954 19.5236 26.6234C19.4757 26.3514 19.2165 26.1698 18.9445 26.2176L12.2945 27.3876C12.0225 27.4355 11.8408 27.6947 11.8887 27.9667C11.9365 28.2386 12.1958 28.4203 12.4678 28.3725L19.1178 27.2025Z" fill="#D3D3D3"/>
          <path d="M13.7912 5.43997C12.6812 7.35997 13.2412 9.75997 15.0412 10.79C16.8412 11.82 19.1912 11.11 20.3012 9.18997C21.4112 7.26997 20.8512 4.86997 19.0512 3.83997C17.2512 2.80997 14.9012 3.51997 13.7912 5.43997Z" fill="#FFF478"/>
        </g>
      </g>
    </g>
    <g transform="translate(-330, -34)">
      <text id="ITEM_5_HEAD" text-anchor="start" font-weight="bold" font-size="29" fill="var(--inverse-text)" x="0.0" y="-10.0" data-bg-id="ITEM_5_BG" fill-opacity="1.0" style="font-size: 30px; font-family: Inter, Segoe UI, Kalam, Roboto, Helvetica, Arial, sans-serif; font-weight: 700; letter-spacing:-0.4px;" data-final-font-size="30">
        <tspan x="0.0" dy="33.03px">Brightness Fluctuations</tspan>
      </text>
      <rect id="ITEM_5_HEAD_FRAME" x="0" y="-10" width="846" height="42" fill="none"/>
      <text id="ITEM_5_BODY" text-anchor="start" font-size="21" fill="var(--inverse-text)" x="0.0" y="30.0" data-bg-id="ITEM_5_BG" style="font-size: 26px; font-family: Inter, Segoe UI, Kalam, Roboto, Helvetica, Arial, sans-serif; font-weight: 400;" data-final-font-size="26">
        <tspan x="0.0" dy="42.18px">Fading lights can distort perceived geometric shapes</tspan>
      </text>
      <rect id="ITEM_5_BODY_FRAME" x="0" y="30" width="846" height="114" fill="none"/>
    </g>
  </g>
</svg>
